<svg width="80" height="80" viewBox="0 0 80 80" fill="none" xmlns="http://www.w3.org/2000/svg">
	<path d="M52.7836 22.5423L43.1097 2.02384C42.4733 0.673906 41.2353 -0.000709301 39.9976 0V68.511C40.5526 68.5107 41.1077 68.6497 41.6135 68.928L60.9612 79.5756C63.5057 80.9759 66.4796 78.7142 65.9936 75.7483L62.2986 53.1964C62.1056 52.0186 62.4786 50.8169 63.296 49.9828L78.9487 34.0114C81.0072 31.911 79.8713 28.2514 77.0265 27.8187L55.3951 24.5284C54.2654 24.3565 53.2888 23.6138 52.7836 22.5423Z" fill="#FABF48"/>
	<path d="M19.0387 79.5756L38.3864 68.928C38.891 68.6503 39.4447 68.5113 39.9984 68.511V0C38.762 0.000709114 37.5259 0.675323 36.8902 2.02384L27.2163 22.5423C26.7111 23.6138 25.7345 24.3565 24.6048 24.5284L2.97342 27.8187C0.128588 28.2514 -1.00734 31.911 1.0512 34.0114L16.7038 49.9828C17.5213 50.8169 17.8943 52.0186 17.7013 53.1964L14.0062 75.7483C13.5203 78.7142 16.4942 80.9759 19.0387 79.5756Z" fill="#FABF48"/>
</svg>
