<svg width="119" height="90" viewBox="0 0 119 90" fill="none" xmlns="http://www.w3.org/2000/svg">
<g filter="url(#filter0_d_53_246)">
<path d="M77.0213 41.234C76.2673 55.6336 59.149 72.5106 59.149 72.5106C59.149 72.5106 40.5411 55.6336 39.7872 41.234C38.9529 25.2997 59.149 4 59.149 4C59.149 4 77.8555 25.2997 77.0213 41.234Z" stroke="#E65300" stroke-width="0.3" shape-rendering="crispEdges"/>
</g>
<g filter="url(#filter1_d_53_246)">
<path d="M21.9149 62.0851C32.928 73.7818 59.1489 74 59.1489 74C59.1489 74 58.9335 48.7764 48.7234 38.2553C37.863 27.0641 10 24.8511 10 24.8511C10 24.8511 11.7936 51.3357 21.9149 62.0851Z" stroke="#E65300" stroke-width="0.3" shape-rendering="crispEdges"/>
</g>
<g filter="url(#filter2_d_53_246)">
<path d="M96.383 62.0851C85.3698 73.7818 59.1489 74 59.1489 74C59.1489 74 57.8751 48.7764 68.0851 38.2553C78.9455 27.0641 108.298 24.8511 108.298 24.8511C108.298 24.8511 106.504 51.3357 96.383 62.0851Z" stroke="#E65300" stroke-width="0.3" shape-rendering="crispEdges"/>
</g>
<g filter="url(#filter3_d_53_246)">
<path d="M77.0213 41.234C76.2673 55.6336 59.149 72.5106 59.149 72.5106C59.149 72.5106 40.5411 55.6336 39.7872 41.234C38.9529 25.2997 59.149 4 59.149 4C59.149 4 77.8555 25.2997 77.0213 41.234Z" fill="url(#paint0_linear_53_246)"/>
<path d="M77.0213 41.234C76.2673 55.6336 59.149 72.5106 59.149 72.5106C59.149 72.5106 40.5411 55.6336 39.7872 41.234C38.9529 25.2997 59.149 4 59.149 4C59.149 4 77.8555 25.2997 77.0213 41.234Z" stroke="#E65300" stroke-width="0.3"/>
</g>
<g filter="url(#filter4_d_53_246)">
<path d="M21.9149 62.0851C32.928 73.7818 59.1489 74 59.1489 74C59.1489 74 58.9335 48.7764 48.7234 38.2553C37.863 27.0641 10 24.8511 10 24.8511C10 24.8511 11.7936 51.3357 21.9149 62.0851Z" fill="url(#paint1_linear_53_246)"/>
<path d="M21.9149 62.0851C32.928 73.7818 59.1489 74 59.1489 74C59.1489 74 58.9335 48.7764 48.7234 38.2553C37.863 27.0641 10 24.8511 10 24.8511C10 24.8511 11.7936 51.3357 21.9149 62.0851Z" stroke="#E65300" stroke-width="0.3"/>
</g>
<g filter="url(#filter5_d_53_246)">
<path d="M96.383 62.0851C85.3698 73.7818 59.1489 74 59.1489 74C59.1489 74 57.8751 48.7764 68.0851 38.2553C78.9455 27.0641 108.298 24.8511 108.298 24.8511C108.298 24.8511 106.504 51.3357 96.383 62.0851Z" fill="url(#paint2_linear_53_246)"/>
<path d="M96.383 62.0851C85.3698 73.7818 59.1489 74 59.1489 74C59.1489 74 57.8751 48.7764 68.0851 38.2553C78.9455 27.0641 108.298 24.8511 108.298 24.8511C108.298 24.8511 106.504 51.3357 96.383 62.0851Z" stroke="#E65300" stroke-width="0.3"/>
</g>
<defs>
<filter id="filter0_d_53_246" x="30.0121" y="0.177526" width="56.7863" height="88.1395" filterUnits="userSpaceOnUse" color-interpolation-filters="sRGB">
<feFlood flood-opacity="0" result="BackgroundImageFix"/>
<feColorMatrix in="SourceAlpha" type="matrix" values="0 0 0 0 0 0 0 0 0 0 0 0 0 0 0 0 0 0 127 0" result="hardAlpha"/>
<feOffset dy="6"/>
<feGaussianBlur stdDeviation="4.8"/>
<feComposite in2="hardAlpha" operator="out"/>
<feColorMatrix type="matrix" values="0 0 0 0 0.901961 0 0 0 0 0.32549 0 0 0 0 0 0 0 0 0.25 0"/>
<feBlend mode="normal" in2="BackgroundImageFix" result="effect1_dropShadow_53_246"/>
<feBlend mode="normal" in="SourceGraphic" in2="effect1_dropShadow_53_246" result="shape"/>
</filter>
<filter id="filter1_d_53_246" x="0.238592" y="21.0878" width="68.6616" height="68.6635" filterUnits="userSpaceOnUse" color-interpolation-filters="sRGB">
<feFlood flood-opacity="0" result="BackgroundImageFix"/>
<feColorMatrix in="SourceAlpha" type="matrix" values="0 0 0 0 0 0 0 0 0 0 0 0 0 0 0 0 0 0 127 0" result="hardAlpha"/>
<feOffset dy="6"/>
<feGaussianBlur stdDeviation="4.8"/>
<feComposite in2="hardAlpha" operator="out"/>
<feColorMatrix type="matrix" values="0 0 0 0 0.901961 0 0 0 0 0.32549 0 0 0 0 0 0 0 0 0.25 0"/>
<feBlend mode="normal" in2="BackgroundImageFix" result="effect1_dropShadow_53_246"/>
<feBlend mode="normal" in="SourceGraphic" in2="effect1_dropShadow_53_246" result="shape"/>
</filter>
<filter id="filter2_d_53_246" x="49.3482" y="21.0885" width="68.7111" height="68.6627" filterUnits="userSpaceOnUse" color-interpolation-filters="sRGB">
<feFlood flood-opacity="0" result="BackgroundImageFix"/>
<feColorMatrix in="SourceAlpha" type="matrix" values="0 0 0 0 0 0 0 0 0 0 0 0 0 0 0 0 0 0 127 0" result="hardAlpha"/>
<feOffset dy="6"/>
<feGaussianBlur stdDeviation="4.8"/>
<feComposite in2="hardAlpha" operator="out"/>
<feColorMatrix type="matrix" values="0 0 0 0 0.901961 0 0 0 0 0.32549 0 0 0 0 0 0 0 0 0.25 0"/>
<feBlend mode="normal" in2="BackgroundImageFix" result="effect1_dropShadow_53_246"/>
<feBlend mode="normal" in="SourceGraphic" in2="effect1_dropShadow_53_246" result="shape"/>
</filter>
<filter id="filter3_d_53_246" x="30.0121" y="0.177526" width="56.7863" height="88.1395" filterUnits="userSpaceOnUse" color-interpolation-filters="sRGB">
<feFlood flood-opacity="0" result="BackgroundImageFix"/>
<feColorMatrix in="SourceAlpha" type="matrix" values="0 0 0 0 0 0 0 0 0 0 0 0 0 0 0 0 0 0 127 0" result="hardAlpha"/>
<feOffset dy="6"/>
<feGaussianBlur stdDeviation="4.8"/>
<feComposite in2="hardAlpha" operator="out"/>
<feColorMatrix type="matrix" values="0 0 0 0 0.901961 0 0 0 0 0.32549 0 0 0 0 0 0 0 0 0.25 0"/>
<feBlend mode="normal" in2="BackgroundImageFix" result="effect1_dropShadow_53_246"/>
<feBlend mode="normal" in="SourceGraphic" in2="effect1_dropShadow_53_246" result="shape"/>
</filter>
<filter id="filter4_d_53_246" x="0.238592" y="21.0878" width="68.6616" height="68.6635" filterUnits="userSpaceOnUse" color-interpolation-filters="sRGB">
<feFlood flood-opacity="0" result="BackgroundImageFix"/>
<feColorMatrix in="SourceAlpha" type="matrix" values="0 0 0 0 0 0 0 0 0 0 0 0 0 0 0 0 0 0 127 0" result="hardAlpha"/>
<feOffset dy="6"/>
<feGaussianBlur stdDeviation="4.8"/>
<feComposite in2="hardAlpha" operator="out"/>
<feColorMatrix type="matrix" values="0 0 0 0 0.901961 0 0 0 0 0.32549 0 0 0 0 0 0 0 0 0.25 0"/>
<feBlend mode="normal" in2="BackgroundImageFix" result="effect1_dropShadow_53_246"/>
<feBlend mode="normal" in="SourceGraphic" in2="effect1_dropShadow_53_246" result="shape"/>
</filter>
<filter id="filter5_d_53_246" x="49.3482" y="21.0885" width="68.7111" height="68.6627" filterUnits="userSpaceOnUse" color-interpolation-filters="sRGB">
<feFlood flood-opacity="0" result="BackgroundImageFix"/>
<feColorMatrix in="SourceAlpha" type="matrix" values="0 0 0 0 0 0 0 0 0 0 0 0 0 0 0 0 0 0 127 0" result="hardAlpha"/>
<feOffset dy="6"/>
<feGaussianBlur stdDeviation="4.8"/>
<feComposite in2="hardAlpha" operator="out"/>
<feColorMatrix type="matrix" values="0 0 0 0 0.901961 0 0 0 0 0.32549 0 0 0 0 0 0 0 0 0.25 0"/>
<feBlend mode="normal" in2="BackgroundImageFix" result="effect1_dropShadow_53_246"/>
<feBlend mode="normal" in="SourceGraphic" in2="effect1_dropShadow_53_246" result="shape"/>
</filter>
<linearGradient id="paint0_linear_53_246" x1="58.4052" y1="4" x2="58.4052" y2="72.5106" gradientUnits="userSpaceOnUse">
<stop stop-color="#FFA675"/>
<stop offset="1" stop-color="#E65300"/>
</linearGradient>
<linearGradient id="paint1_linear_53_246" x1="34.5745" y1="24.8511" x2="34.5745" y2="74" gradientUnits="userSpaceOnUse">
<stop stop-color="#FFA675"/>
<stop offset="1" stop-color="#E65300"/>
</linearGradient>
<linearGradient id="paint2_linear_53_246" x1="83.698" y1="24.8511" x2="83.698" y2="74" gradientUnits="userSpaceOnUse">
<stop stop-color="#FFA675"/>
<stop offset="1" stop-color="#E65300"/>
</linearGradient>
</defs>
</svg>
