<svg width="28" height="28" viewBox="0 0 28 28" fill="none" xmlns="http://www.w3.org/2000/svg">
<path d="M24.2308 0C25.2304 0 26.1891 0.368749 26.896 1.02513C27.6029 1.6815 28 2.57174 28 3.5V24.5C28 26.432 26.3114 28 24.2308 28H8.07692C7.07726 28 6.11854 27.6313 5.41167 26.9749C4.7048 26.3185 4.30769 25.4283 4.30769 24.5V3.5C4.30769 2.57174 4.7048 1.6815 5.41167 1.02513C6.11854 0.368749 7.07726 0 8.07692 0H24.2308ZM23.6923 5.5C23.6923 5.10218 23.5221 4.72064 23.2192 4.43934C22.9162 4.15804 22.5053 4 22.0769 4H10.2308C9.80234 4 9.39146 4.15804 9.08852 4.43934C8.78558 4.72064 8.61538 5.10218 8.61538 5.5V6.5C8.61538 6.89782 8.78558 7.27936 9.08852 7.56066C9.39146 7.84196 9.80234 8 10.2308 8H22.0769C22.5053 8 22.9162 7.84196 23.2192 7.56066C23.5221 7.27936 23.6923 6.89782 23.6923 6.5V5.5ZM2.15384 6H0.807691C0.361845 6 -1.43051e-06 6.336 -1.43051e-06 6.75V9.25C-1.43051e-06 9.44891 0.0850939 9.63968 0.236566 9.78033C0.388037 9.92098 0.593478 10 0.807691 10H2.15384V6ZM0.807691 12H2.15384V16H0.807691C0.593478 16 0.388037 15.921 0.236566 15.7803C0.0850939 15.6397 -1.43051e-06 15.4489 -1.43051e-06 15.25V12.75C-1.43051e-06 12.5511 0.0850939 12.3603 0.236566 12.2197C0.388037 12.079 0.593478 12 0.807691 12V12ZM2.15384 18H0.807691C0.361845 18 -1.43051e-06 18.336 -1.43051e-06 18.75V21.25C-1.43051e-06 21.4489 0.0850939 21.6397 0.236566 21.7803C0.388037 21.921 0.593478 22 0.807691 22H2.15384V18Z" fill="#C22133"/>
</svg>
