<svg width="28" height="36" viewBox="0 0 28 36" fill="none" xmlns="http://www.w3.org/2000/svg">
<path d="M4.66667 0C2.09271 0 0 2.01797 0 4.5V31.5C0 33.982 2.09271 36 4.66667 36H23.3333C25.9073 36 28 33.982 28 31.5V11.25H18.6667C17.376 11.25 16.3333 10.2445 16.3333 9V0H4.66667ZM18.6667 0V9H28L18.6667 0ZM4.66667 5.625C4.66667 5.00625 5.19167 4.5 5.83333 4.5H10.5C11.1417 4.5 11.6667 5.00625 11.6667 5.625C11.6667 6.24375 11.1417 6.75 10.5 6.75H5.83333C5.19167 6.75 4.66667 6.24375 4.66667 5.625ZM4.66667 10.125C4.66667 9.50625 5.19167 9 5.83333 9H10.5C11.1417 9 11.6667 9.50625 11.6667 10.125C11.6667 10.7438 11.1417 11.25 10.5 11.25H5.83333C5.19167 11.25 4.66667 10.7438 4.66667 10.125ZM14 15.1875C14.6417 15.1875 15.1667 15.6937 15.1667 16.3125V17.5289C15.7865 17.6133 16.3844 17.7469 16.924 17.8875C17.5437 18.0492 17.9156 18.6609 17.7479 19.2656C17.5802 19.8703 16.9458 20.2219 16.3187 20.0602C15.5094 19.8492 14.7146 19.6945 13.9781 19.6875C13.3656 19.6805 12.7094 19.8141 12.2573 20.0742C11.8417 20.3133 11.6667 20.5875 11.6667 20.9742C11.6667 21.2344 11.7615 21.4312 12.199 21.6844C12.7021 21.9727 13.4094 22.1836 14.3281 22.4508L14.3646 22.4578C15.1885 22.6969 16.2094 22.9922 17.0115 23.4844C17.8937 24.0187 18.6448 24.8695 18.6667 26.1703C18.6885 27.5273 17.9667 28.5117 16.9969 29.0953C16.4354 29.4328 15.801 29.6297 15.1667 29.7352V30.9375C15.1667 31.5563 14.6417 32.0625 14 32.0625C13.3583 32.0625 12.8333 31.5563 12.8333 30.9375V29.6859C12.0167 29.5383 11.251 29.2852 10.5802 29.0602C10.4271 29.0109 10.274 28.9617 10.1281 28.9125C9.51562 28.7156 9.1875 28.0758 9.39167 27.4922C9.59583 26.9086 10.2594 26.5852 10.8646 26.782C11.0469 26.8383 11.2146 26.8945 11.3823 26.9508C12.374 27.2742 13.176 27.5414 14.0292 27.5625C14.6927 27.5836 15.3344 27.443 15.7573 27.1898C16.1292 26.9648 16.3333 26.6766 16.326 26.2055C16.3187 25.882 16.1948 25.657 15.7646 25.3898C15.2687 25.0875 14.5615 24.8695 13.65 24.6023L13.5333 24.5672C12.7313 24.3352 11.7615 24.0539 10.9958 23.6039C10.1208 23.0977 9.34792 22.275 9.34063 20.9812C9.33333 19.6172 10.1281 18.675 11.076 18.1336C11.6229 17.8242 12.2281 17.6273 12.8333 17.5219V16.3125C12.8333 15.6937 13.3583 15.1875 14 15.1875V15.1875Z" fill="#C22133"/>
</svg>
