<svg width="28" height="24" viewBox="0 0 28 24" fill="none" xmlns="http://www.w3.org/2000/svg">
<path d="M27.1753 1.20321C25.4783 0.331607 23.7799 6.44335e-08 22.0825 6.44335e-08C16.6939 -0.00053565 11.3057 3.33964 5.9171 3.33964C4.56568 3.33964 3.21514 3.12964 1.86372 2.60464C1.71191 2.54571 1.55966 2.51786 1.41092 2.51786C0.65799 2.51786 0 3.23143 0 4.22196V21.218C0 21.8946 0.316308 22.5359 0.824237 22.7963C2.52127 23.6684 4.21962 24 5.9171 24C11.3057 24 16.6943 20.6598 22.0829 20.6598C23.4343 20.6598 24.7849 20.8698 26.1363 21.3948C26.2881 21.4537 26.4403 21.4816 26.5891 21.4816C27.342 21.4816 28 20.768 28 19.7775V2.78196C27.9996 2.10482 27.6833 1.46411 27.1753 1.20321V1.20321ZM2.09997 5.36893C2.9802 5.63893 3.89894 5.77446 4.84392 5.84732C4.58668 7.42179 3.4562 8.60839 2.09997 8.60839V5.36893ZM2.09997 20.6368V18.0771C3.60363 18.0771 4.8203 19.538 4.88724 21.3664C3.90156 21.2695 2.9802 21.0284 2.09997 20.6368V20.6368ZM13.9998 17.1429C12.0665 17.1429 10.4998 14.8398 10.4998 12C10.4998 9.15964 12.0669 6.85714 13.9998 6.85714C15.9326 6.85714 17.4997 9.15964 17.4997 12C17.4997 14.8409 15.9322 17.1429 13.9998 17.1429ZM25.8996 18.6311C25.1331 18.3959 24.3373 18.2641 23.5231 18.1789C23.7799 16.7818 24.7262 15.7211 25.8996 15.5389V18.6311ZM25.8996 5.98232C24.5482 5.77286 23.4995 4.39125 23.4579 2.685C24.3128 2.80125 25.1244 3.01875 25.8996 3.36321V5.98232Z" fill="#C22133"/>
</svg>
