<?xml version="1.0" encoding="UTF-8"?>
<svg id="Camada_1" data-name="Camada 1" xmlns="http://www.w3.org/2000/svg" viewBox="0 0 25 18.75">
  <defs>
    <style>
      .cls-1 {
        fill: #C22133;
      }
    </style>
  </defs>
  <path class="cls-1" d="m17.5,16.25v2.5H0v-2.5s0-5,8.75-5,8.75,5,8.75,5Zm-4.38-11.87c0-.87-.26-1.71-.74-2.43-.48-.72-1.16-1.28-1.96-1.61C9.62,0,8.75-.08,7.9.08c-.85.17-1.63.59-2.24,1.2-.61.61-1.03,1.39-1.2,2.24-.17.85-.08,1.73.25,2.53.33.8.89,1.48,1.61,1.96.72.48,1.57.74,2.43.74,1.16,0,2.27-.46,3.09-1.28.82-.82,1.28-1.93,1.28-3.09Zm4.3,6.87c.77.59,1.4,1.35,1.84,2.21.44.86.69,1.81.73,2.79v2.5h5v-2.5s0-4.54-7.58-5ZM16.25,0c-.86,0-1.7.25-2.41.74.76,1.06,1.17,2.33,1.17,3.64s-.41,2.58-1.17,3.64c.71.49,1.55.74,2.41.74,1.16,0,2.27-.46,3.09-1.28.82-.82,1.28-1.93,1.28-3.09s-.46-2.27-1.28-3.09C18.52.46,17.41,0,16.25,0Z"/>
</svg>