<svg width="21" height="24" viewBox="0 0 21 24" fill="none" xmlns="http://www.w3.org/2000/svg">
<path d="M8.30156 2.25H12.6937C12.8203 2.25 12.9375 2.31094 13.0078 2.41875L13.8984 3.75H7.10156L7.99219 2.41875C8.0625 2.31562 8.17969 2.25 8.30625 2.25H8.30156ZM16.6031 3.75L14.8828 1.16719C14.3953 0.440625 13.575 0 12.6984 0H8.30156C7.425 0 6.60469 0.440625 6.11719 1.16719L4.39688 3.75H3.75469H1.5H1.125C0.501562 3.75 0 4.25156 0 4.875C0 5.49844 0.501562 6 1.125 6H1.66875L2.79375 21.2203C2.91094 22.7859 4.21406 24 5.78438 24H15.2109C16.7812 24 18.0844 22.7859 18.2016 21.2203L19.3312 6H19.875C20.4984 6 21 5.49844 21 4.875C21 4.25156 20.4984 3.75 19.875 3.75H19.5H17.2453H16.6031ZM17.0766 6L15.9609 21.0563C15.9328 21.45 15.6047 21.75 15.2109 21.75H5.78438C5.39062 21.75 5.06719 21.4453 5.03438 21.0563L3.92344 6H17.0766Z" fill="#FD7777"/>
</svg>
