<svg width="114" height="102" viewBox="0 0 114 102" fill="none" xmlns="http://www.w3.org/2000/svg">
<path id="Vector" d="M17.5 0H102.5C105.506 0 108.388 1.19404 110.514 3.31946C112.639 5.44487 113.833 8.32755 113.833 11.3333V28.3333C113.833 31.3391 112.639 34.2218 110.514 36.3472C108.388 38.4726 105.506 39.6667 102.5 39.6667H91.1667V56.6667C91.1667 62.6782 88.7786 68.4436 84.5278 72.6944C80.2769 76.9453 74.5116 79.3333 68.5 79.3333H34.5C28.4884 79.3333 22.7231 76.9453 18.4722 72.6944C14.2214 68.4436 11.8333 62.6782 11.8333 56.6667V5.66667C11.8333 4.16377 12.4304 2.72243 13.4931 1.65973C14.5558 0.597022 15.9971 0 17.5 0ZM91.1667 11.3333V28.3333H102.5V11.3333H91.1667ZM0.5 90.6667H102.5V102H0.5V90.6667Z" fill="#E0A075"/>
</svg>
