<svg width="92" height="102" viewBox="0 0 92 102" fill="none" xmlns="http://www.w3.org/2000/svg">
<path d="M1.01752 0C0.438895 0 -0.0115178 0.502534 0.0515846 1.07771L10.1333 92.973C10.7963 98.073 15.0803 102 20.3333 102H71.3334C76.4333 102 80.8704 98.073 81.5333 92.973L91.6151 1.07771C91.6782 0.502529 91.2278 0 90.6492 0H1.01752ZM11.3754 11.2792C11.3114 10.7035 11.762 10.2 12.3412 10.2H79.3255C79.9047 10.2 80.3553 10.7035 80.2913 11.2792L75.8724 51L71.4295 90.9357C71.3748 91.4278 70.9588 91.8 70.4637 91.8H21.203C20.7079 91.8 20.2919 91.4278 20.2372 90.9357L15.7943 51L11.3754 11.2792Z" fill="#45ABF5"/>
<path d="M70.4637 91.8C70.9588 91.8 71.3748 91.4278 71.4295 90.9357L75.8724 51H15.7943L20.2372 90.9357C20.2919 91.4278 20.7079 91.8 21.203 91.8H70.4637Z" fill="#45ABF5"/>
</svg>
