<svg width="29" height="29" viewBox="0 0 29 29" fill="none" xmlns="http://www.w3.org/2000/svg">
<g clip-path="url(#clip0_5529_76)">
<path d="M5.9222 0.5C3.09003 0.5 0.80957 2.78046 0.80957 5.61263V23.3874C0.80957 26.2196 3.09003 28.5 5.9222 28.5H15.556V17.5538H12.6615V13.6128H15.556V10.2458C15.556 7.60046 17.2662 5.17163 21.2058 5.17163C22.8009 5.17163 23.9805 5.32476 23.9805 5.32476L23.8877 9.00503C23.8877 9.00503 22.6847 8.99366 21.3721 8.99366C19.9514 8.99366 19.7236 9.64824 19.7236 10.7349V13.6128H24.0006L23.8142 17.5538H19.7236V28.5001H23.6969C26.5291 28.5001 28.8096 26.2196 28.8096 23.3874V5.61266C28.8096 2.78049 26.5291 0.500028 23.6969 0.500028H5.92217L5.9222 0.5Z" fill="#676767"/>
</g>
<defs>
<clipPath id="clip0_5529_76">
<rect width="28" height="28" fill="white" transform="translate(0.80957 0.5)"/>
</clipPath>
</defs>
</svg>
