<svg width="29" height="29" viewBox="0 0 29 29" fill="none" xmlns="http://www.w3.org/2000/svg">
<g clip-path="url(#clip0_5529_74)">
<path d="M6.29939 0.506958C3.2833 0.506958 0.814819 2.97538 0.814819 5.99151V23.0111C0.814819 26.0271 3.28325 28.4947 6.29939 28.4947H23.319C26.3351 28.4947 28.8026 26.0272 28.8026 23.0111V5.99151C28.8026 2.97544 26.3351 0.506958 23.319 0.506958H6.29939ZM7.67884 5.1255C9.12498 5.1255 10.0157 6.07487 10.0432 7.3228C10.0432 8.54318 9.12493 9.51923 7.65086 9.51923H7.62373C6.20511 9.51923 5.28819 8.54324 5.28819 7.3228C5.28819 6.0749 6.23286 5.1255 7.67881 5.1255H7.67884ZM20.1411 10.9582C22.9223 10.9582 25.0072 12.776 25.0072 16.6824V23.975H20.7805V17.1713C20.7805 15.4616 20.1688 14.2952 18.6392 14.2952C17.4715 14.2952 16.7755 15.0814 16.4699 15.8409C16.3582 16.1126 16.3308 16.4921 16.3308 16.8722V23.975H12.1041C12.1041 23.975 12.1596 12.4498 12.1041 11.2564H16.3317V13.0575C16.8933 12.1909 17.898 10.9582 20.1411 10.9582V10.9582ZM5.5375 11.2574H9.76419V23.975H5.5375V11.2574Z" fill="#676767"/>
</g>
<defs>
<clipPath id="clip0_5529_74">
<rect width="28" height="28" fill="white" transform="translate(0.80957 0.5)"/>
</clipPath>
</defs>
</svg>
