<svg width="29" height="29" viewBox="0 0 29 29" fill="none" xmlns="http://www.w3.org/2000/svg">
<g clip-path="url(#clip0_5529_71)">
<path d="M28.7194 8.76433C28.7037 7.58867 28.4833 6.4247 28.0679 5.32448C27.7077 4.39646 27.1576 3.55364 26.4527 2.84989C25.7477 2.14613 24.9035 1.59692 23.9739 1.23733C22.8861 0.829637 21.7368 0.609189 20.575 0.585375C19.0792 0.518627 18.605 0.5 14.808 0.5C11.011 0.5 10.5244 0.5 9.03947 0.585375C7.87823 0.609364 6.72948 0.82981 5.64209 1.23733C4.71237 1.59667 3.86802 2.14579 3.16306 2.84958C2.45811 3.55336 1.90807 4.39631 1.54813 5.32448C1.13894 6.40973 0.918602 7.55683 0.896643 8.71621C0.829784 10.2111 0.80957 10.6845 0.80957 14.4752C0.80957 18.2658 0.80957 18.7501 0.896643 20.2341C0.919966 21.3952 1.1392 22.5408 1.54813 23.629C1.90867 24.5568 2.45912 25.3994 3.16431 26.1029C3.86951 26.8064 4.71393 27.3553 5.64364 27.7146C6.72806 28.1386 7.87701 28.3749 9.04102 28.4131C10.5384 28.4798 11.0126 28.5 14.8096 28.5C18.6066 28.5 19.0932 28.5 20.5781 28.4131C21.7398 28.3902 22.8892 28.1703 23.9771 27.7627C24.9064 27.4027 25.7504 26.8533 26.4553 26.1496C27.1601 25.4459 27.7104 24.6033 28.071 23.6755C28.4799 22.5889 28.6992 21.4433 28.7225 20.2807C28.7894 18.7874 28.8096 18.3139 28.8096 14.5217C28.8065 10.7311 28.8065 10.2499 28.7194 8.76433ZM14.7987 21.6436C10.8276 21.6436 7.61055 18.4319 7.61055 14.4674C7.61055 10.5029 10.8276 7.29122 14.7987 7.29122C16.7051 7.29122 18.5334 8.04728 19.8815 9.39308C21.2295 10.7389 21.9868 12.5642 21.9868 14.4674C21.9868 16.3706 21.2295 18.1959 19.8815 19.5417C18.5334 20.8875 16.7051 21.6436 14.7987 21.6436ZM22.2729 8.69913C22.0527 8.69934 21.8347 8.6562 21.6312 8.57218C21.4278 8.48815 21.2429 8.3649 21.0873 8.20948C20.9316 8.05405 20.8081 7.8695 20.7239 7.66639C20.6398 7.46327 20.5966 7.24558 20.5968 7.02578C20.5968 6.80613 20.6401 6.58864 20.7243 6.38571C20.8085 6.18278 20.9319 5.9984 21.0875 5.84309C21.2431 5.68777 21.4277 5.56457 21.631 5.48052C21.8343 5.39646 22.0521 5.3532 22.2721 5.3532C22.4922 5.3532 22.71 5.39646 22.9133 5.48052C23.1165 5.56457 23.3012 5.68777 23.4568 5.84309C23.6124 5.9984 23.7358 6.18278 23.82 6.38571C23.9042 6.58864 23.9475 6.80613 23.9475 7.02578C23.9475 7.95094 23.1981 8.69913 22.2729 8.69913Z" fill="#676767"/>
<path d="M14.8096 19.5C17.571 19.5 19.8096 17.2614 19.8096 14.5C19.8096 11.7386 17.571 9.5 14.8096 9.5C12.0481 9.5 9.80957 11.7386 9.80957 14.5C9.80957 17.2614 12.0481 19.5 14.8096 19.5Z" fill="#676767"/>
</g>
<defs>
<clipPath id="clip0_5529_71">
<rect width="28" height="28" fill="white" transform="translate(0.80957 0.5)"/>
</clipPath>
</defs>
</svg>
