<svg width="29" height="29" viewBox="0 0 29 29" fill="none" xmlns="http://www.w3.org/2000/svg">
<g clip-path="url(#clip0_5529_78)">
<path d="M25.8096 0.5H3.80957C2.15332 0.5 0.80957 1.84375 0.80957 3.5V25.5C0.80957 27.1562 2.15332 28.5 3.80957 28.5H25.8096C27.4658 28.5 28.8096 27.1562 28.8096 25.5V3.5C28.8096 1.84375 27.4658 0.5 25.8096 0.5ZM22.7533 10.425C22.7658 10.6 22.7658 10.7812 22.7658 10.9563C22.7658 16.375 18.6408 22.6187 11.1033 22.6187C8.77832 22.6187 6.62207 21.9438 4.80957 20.7812C5.14082 20.8188 5.45957 20.8312 5.79707 20.8312C7.71582 20.8312 9.47832 20.1812 10.8846 19.0812C9.08457 19.0437 7.57207 17.8625 7.05332 16.2375C7.68457 16.3312 8.25332 16.3313 8.90332 16.1625C7.02832 15.7812 5.62207 14.1312 5.62207 12.1375V12.0875C6.16582 12.3937 6.80332 12.5813 7.47207 12.6062C6.90984 12.2323 6.44893 11.7249 6.13049 11.1295C5.81204 10.534 5.64597 9.869 5.64707 9.19375C5.64707 8.43125 5.84707 7.73125 6.20332 7.125C8.22207 9.6125 11.2533 11.2375 14.6533 11.4125C14.0721 8.63125 16.1533 6.375 18.6533 6.375C19.8346 6.375 20.8971 6.86875 21.6471 7.66875C22.5721 7.49375 23.4596 7.15 24.2471 6.68125C23.9408 7.63125 23.2971 8.43125 22.4471 8.9375C23.2721 8.85 24.0721 8.61875 24.8096 8.3C24.2533 9.11875 23.5533 9.84375 22.7533 10.425Z" fill="#676767"/>
</g>
<defs>
<clipPath id="clip0_5529_78">
<rect width="28" height="28" fill="white" transform="translate(0.80957 0.5)"/>
</clipPath>
</defs>
</svg>
