<svg width="273" height="506" viewBox="0 0 273 506" fill="none" xmlns="http://www.w3.org/2000/svg">
<path d="M221.297 297.154C185.799 372.37 142.062 424.121 94.346 453.93C46.6353 483.736 -5.07769 491.622 -56.5812 479.069C-107.951 466.548 -138.257 420.772 -147.892 364.458C-157.527 308.149 -146.461 241.421 -115.191 187.247C-86.1276 136.896 -50.9443 91.6328 -11.0759 59.6804C28.7897 27.7302 73.3146 9.10699 121.086 11.9716C156.761 14.111 183.344 26.1183 202.544 44.6126C221.749 63.113 233.603 88.1409 239.745 116.378C252.032 172.86 241.444 242.072 221.297 297.154ZM-45.8218 391.132C-22.8158 396.752 6.77899 388.888 35.9764 369.881C65.1893 350.863 94.0739 320.649 115.687 281.429C136.031 244.512 148.606 197.469 147.694 159.121C147.239 139.948 143.411 122.899 135.449 110.375C127.473 97.8267 115.359 89.846 98.4347 88.8269C31.0896 84.7718 -17.3601 134.553 -58.0354 205.15C-78.4211 240.531 -86.8729 284.156 -84.5134 320.342C-83.3337 338.435 -79.4491 354.699 -72.9762 367.154C-66.5029 379.61 -57.415 388.3 -45.8218 391.132Z" stroke="#7079F4"/>
<path d="M184.297 305.154C148.799 380.37 105.062 432.121 57.346 461.93C9.63525 491.736 -42.0777 499.622 -93.5812 487.069C-144.951 474.548 -175.257 428.772 -184.892 372.458C-194.527 316.149 -183.461 249.421 -152.191 195.247C-123.128 144.896 -87.9443 99.6328 -48.0759 67.6804C-8.21029 35.7302 36.3146 17.107 84.086 19.9716C119.761 22.111 146.344 34.1183 165.544 52.6126C184.749 71.113 196.603 96.1409 202.745 124.378C215.032 180.86 204.444 250.072 184.297 305.154ZM-82.8218 399.132C-59.8158 404.752 -30.221 396.888 -1.02363 377.881C28.1893 358.863 57.0739 328.649 78.6871 289.429C99.0312 252.512 111.606 205.469 110.694 167.121C110.239 147.948 106.411 130.899 98.4493 118.375C90.4725 105.827 78.3595 97.846 61.4347 96.8269C-5.91039 92.7718 -54.3601 142.553 -95.0354 213.15C-115.421 248.531 -123.873 292.156 -121.513 328.342C-120.334 346.435 -116.449 362.699 -109.976 375.154C-103.503 387.61 -94.415 396.3 -82.8218 399.132Z" fill="#7079F4" stroke="#7079F4"/>
</svg>
