<svg width="293" height="161" viewBox="0 0 293 161" fill="none" xmlns="http://www.w3.org/2000/svg">
<path fill-rule="evenodd" clip-rule="evenodd" d="M409.688 15.0321C336.625 140.167 242.02 181.49 154.401 151.807C66.7829 122.124 62.9988 -16.9792 125.583 -106.32C183.683 -189.258 261.523 -252.756 344.193 -240.476C467.615 -222.142 453.061 -77.5096 409.688 15.0321ZM170.702 75.5625C209.418 88.7004 275.204 57.5198 318.577 -7.08478C359.399 -67.8904 376.385 -166.106 318.577 -174.707C260.768 -183.309 215.114 -144.043 174.487 -85.9489C133.859 -27.855 131.987 62.4245 170.702 75.5625Z" fill="#FC676C"/>
<path d="M326.245 14.7993C289.749 77.2993 247.899 118.826 204.276 141.031C160.658 163.233 115.242 166.132 71.5618 151.334C28.0122 136.58 5.23066 94.6166 1.16456 45.0744C-2.90114 -4.46275 11.7673 -61.4578 42.9929 -106.033C72.0201 -147.47 105.963 -184.027 142.952 -208.689C179.937 -233.349 219.941 -246.098 261.119 -239.982C291.873 -235.413 313.991 -222.986 329.218 -205.504C344.45 -188.015 352.818 -165.427 355.993 -140.487C362.344 -90.6006 347.901 -31.4149 326.245 14.7993ZM87.5418 76.0359C107.084 82.6675 133.36 78.0944 160.128 63.8336C186.913 49.5641 214.263 25.56 235.992 -6.80608C256.445 -37.2719 270.932 -77.1111 273.062 -110.441C274.127 -127.104 272.106 -142.19 266.149 -153.669C260.179 -165.172 250.268 -173.027 235.65 -175.202C177.532 -183.85 131.717 -144.347 91.0769 -86.2354C70.7019 -57.1007 60.0503 -19.9097 59.3413 11.6541C58.9867 27.4365 61.1172 41.8423 65.7855 53.1441C70.4541 64.4469 77.6829 72.6903 87.5418 76.0359Z" stroke="#FC676C"/>
</svg>
