<?xml version="1.0" encoding="UTF-8"?>
<svg id="Camada_1" data-name="Camada 1" xmlns="http://www.w3.org/2000/svg" viewBox="0 0 22.5 25">
  <defs>
    <style>
      .cls-1 {
        fill: #C22133;
      }
    </style>
  </defs>
  <path class="cls-1" d="m5,15h2.5v2.5h-2.5v-2.5Z"/>
  <path class="cls-1" d="m20,0h-10c-.66,0-1.3.26-1.77.73-.47.47-.73,1.1-.73,1.77v7.5H2.5c-1.38,0-2.5,1.12-2.5,2.5v11.25c0,.33.13.65.37.88.23.23.55.37.88.37h20c.33,0,.65-.13.88-.37s.37-.55.37-.88V2.5c0-.66-.26-1.3-.73-1.77-.47-.47-1.1-.73-1.77-.73ZM2.5,22.5v-10h7.5v10H2.5ZM13.75,7.5h-2.5v-2.5h2.5v2.5Zm5,10h-2.5v-2.5h2.5v2.5Zm0-5h-2.5v-2.5h2.5v2.5Zm0-5h-2.5v-2.5h2.5v2.5Z"/>
</svg>