<?xml version="1.0" encoding="UTF-8"?>
<svg id="Camada_1" data-name="Camada 1" xmlns="http://www.w3.org/2000/svg" viewBox="0 0 32.08 26.25">
  <defs>
    <style>
      .cls-1 {
        fill: #C22133;
      }
    </style>
  </defs>
  <path class="cls-1" d="m2.92,11.67h23.33v-5.83H2.92v5.83Zm23.33,14.58c-.41,0-.76-.14-1.04-.42-.28-.28-.42-.63-.42-1.04v-2.92h-2.92c-.41,0-.76-.14-1.04-.42-.28-.28-.42-.63-.42-1.04,0-.41.14-.76.42-1.04.28-.28.63-.42,1.04-.42h2.92v-2.92c0-.41.14-.76.42-1.04.28-.28.63-.42,1.04-.42.41,0,.76.14,1.04.42.28.28.42.63.42,1.04v2.92h2.92c.41,0,.76.14,1.04.42.28.28.42.63.42,1.04,0,.41-.14.76-.42,1.04-.28.28-.63.42-1.04.42h-2.92v2.92c0,.41-.14.76-.42,1.04s-.63.42-1.04.42Zm-23.33-2.92c-.8,0-1.49-.29-2.06-.86C.28,21.9,0,21.22,0,20.42V2.92C0,2.11.29,1.43.86.86,1.43.28,2.12,0,2.92,0h23.33C27.05,0,27.74.29,28.31.86c.57.57.86,1.26.86,2.06v8.75h-4.38c-2.02,0-3.74.71-5.16,2.13-1.42,1.42-2.13,3.14-2.13,5.16v4.38H2.92Z"/>
</svg>