<svg width="101" height="119" viewBox="0 0 101 119" fill="none" xmlns="http://www.w3.org/2000/svg">
<g clip-path="url(#clip0_264_1747)">
<path opacity="0.5" d="M30.2468 19.8729L48.5627 20.2129L63.0689 42.7592C63.4655 43.3715 63.6638 43.6777 63.8424 43.9782C70.4951 54.6855 72.3262 67.9861 68.7954 79.9728L68.3734 81.3371C68.1601 82.0072 68.0602 82.3471 67.9629 82.6763C64.2545 95.1765 64.3071 108.616 68.1129 121.082L70.5506 129.483C73.7857 140.647 75.4095 146.224 74.8907 150.684C74.5394 153.991 73.4044 157.147 71.5944 159.847C69.7844 162.548 67.36 164.703 64.5534 166.107C60.8408 167.947 55.5457 167.854 44.9581 167.657L39.3011 167.557C28.7073 167.364 23.4122 167.271 19.6324 165.293C16.7723 163.787 14.2891 161.566 12.3902 158.817C10.4914 156.067 9.2321 152.869 8.71765 149.489C8.04349 144.994 9.45327 139.468 12.2827 128.42L14.4137 120.108L14.758 118.738C17.8234 106.016 17.0968 92.5794 12.6807 80.3248C12.4373 79.6259 12.3138 79.2731 12.2073 78.9366C8.23329 66.8194 9.57157 53.5759 15.8324 43.1019L16.5645 41.9114L30.2468 19.8729Z" fill="white"/>
<path d="M13.9847 84.7914C17.173 95.8885 17.4236 107.721 14.7084 118.963L14.3606 120.326L12.2295 128.638L12.2174 128.685C9.39967 139.709 7.98869 145.229 8.6645 149.707C9.17895 153.087 10.4382 156.285 12.3371 159.035C14.2359 161.784 16.7192 164.005 19.5792 165.511C23.3584 167.486 28.6346 167.584 39.1636 167.78L39.2516 167.781L44.9086 167.882L45.0835 167.885C55.5572 168.069 60.8118 168.161 64.5003 166.325C67.3066 164.923 69.7314 162.77 71.5426 160.072C73.3538 157.374 74.4908 154.221 74.8447 150.915C75.3501 146.446 73.7325 140.865 70.4948 129.712L68.0634 121.307L67.6615 119.928C64.2576 107.843 64.3454 94.9313 67.9133 82.901C67.9133 82.901 59.829 84.3259 54.6043 84.7914C45.7354 85.5816 40.7156 84.7914 31.8163 84.7914C24.8526 84.7914 13.9847 84.7914 13.9847 84.7914Z" fill="#B1D8FF"/>
<path d="M30.2407 19.8767L48.5628 20.2129L48.4209 12.8431C48.3829 10.718 48.3671 9.65345 47.972 8.84316C47.6275 8.12222 47.0814 7.53568 46.4106 7.16616C45.6506 6.74453 44.6686 6.72984 42.6911 6.69093L36.0486 6.56926C33.9389 6.53218 32.8792 6.51224 32.0811 6.94698C31.3719 7.32497 30.7983 7.94366 30.4489 8.7074C30.0526 9.56323 30.0725 10.6969 30.1157 12.971L30.2407 19.8767Z" fill="#979797"/>
</g>
<defs>
<clipPath id="clip0_264_1747">
<rect width="120" height="185.915" fill="white" transform="translate(-19)"/>
</clipPath>
</defs>
</svg>
