<svg width="17" height="16" viewBox="0 0 17 16" fill="none" xmlns="http://www.w3.org/2000/svg">
<rect x="0.5" width="16" height="16" rx="8" fill="#FFE3D3"/>
<path d="M6.96962 10.0859L5.31271 8.2179C5.22343 8.11724 5.10234 8.06069 4.97607 8.06069C4.84981 8.06069 4.72872 8.11724 4.63944 8.2179C4.55016 8.31855 4.5 8.45507 4.5 8.59742C4.5 8.6679 4.51231 8.7377 4.53624 8.80281C4.56016 8.86793 4.59523 8.9271 4.63944 8.97694L6.63538 11.2272C6.8216 11.4371 7.12242 11.4371 7.30865 11.2272L12.3606 5.53163C12.4498 5.43098 12.5 5.29446 12.5 5.15211C12.5 5.00976 12.4498 4.87325 12.3606 4.77259C12.2713 4.67193 12.1502 4.61539 12.0239 4.61539C11.8977 4.61539 11.7766 4.67193 11.6873 4.77259L6.96962 10.0859Z" fill="#C74B00"/>
</svg>
