<svg width="13" height="11" viewBox="0 0 13 11" fill="none" xmlns="http://www.w3.org/2000/svg">
<path d="M2.3 0.200012H11.3C11.6183 0.200012 11.9235 0.32644 12.1485 0.551484C12.3736 0.776528 12.5 1.08175 12.5 1.40001V3.20001C12.5 3.51827 12.3736 3.8235 12.1485 4.04854C11.9235 4.27358 11.6183 4.40001 11.3 4.40001H10.1V6.20001C10.1 6.83653 9.84714 7.44698 9.39706 7.89707C8.94697 8.34716 8.33652 8.60001 7.7 8.60001H4.1C3.46348 8.60001 2.85303 8.34716 2.40294 7.89707C1.95286 7.44698 1.7 6.83653 1.7 6.20001V0.800012C1.7 0.640882 1.76321 0.48827 1.87574 0.375748C1.98826 0.263226 2.14087 0.200012 2.3 0.200012ZM10.1 1.40001V3.20001H11.3V1.40001H10.1ZM0.5 9.80001H11.3V11H0.5V9.80001Z" fill="#4CA8EB"/>
</svg>
