<svg width="12" height="12" viewBox="0 0 12 12" fill="none" xmlns="http://www.w3.org/2000/svg">
<path d="M6.30333 0.140338L6 4.50176e-06L5.69667 0.140338C4.93356 0.492462 4.23803 0.953059 3.63667 1.50452C4.51211 1.91594 5.30979 2.45018 6 3.08734C6.69 2.45023 7.48746 1.91599 8.36267 1.50452C7.7615 0.953111 7.0662 0.492516 6.30333 0.140338ZM5.13267 4.01004C3.96998 2.90283 2.44864 2.1572 0.787333 1.88035L0 1.74905V6.57941C-0.000269133 7.66733 0.361821 8.73016 1.03918 9.62966C1.71654 10.5292 2.67782 11.2237 3.798 11.623C3.48936 10.7727 3.33251 9.88341 3.33333 8.98856C3.33333 7.12629 4.00067 5.40494 5.13267 4.01004ZM12 1.74965L11.2133 1.88035C7.488 2.4983 4.66667 5.4453 4.66667 8.98856C4.66667 9.91368 4.86 10.7996 5.21133 11.6145L5.37133 11.9849C5.58067 11.991 5.79067 12 6 12C7.5913 12 9.11742 11.4289 10.2426 10.4123C11.3679 9.39579 12 8.01704 12 6.57941V1.74965Z" fill="#960606"/>
</svg>
