<svg width="11" height="12" viewBox="0 0 11 12" fill="none" xmlns="http://www.w3.org/2000/svg">
<path d="M1.43886 0C0.72431 0 0.168089 0.620579 0.246014 1.33087L1.30001 10.938C1.37801 11.538 1.88201 12 2.50001 12H8.50001C9.10001 12 9.62201 11.538 9.70001 10.938L10.754 1.33087C10.8319 0.620578 10.2757 0 9.56116 0H1.43886ZM1.58027 2.53268C1.50118 1.82179 2.05763 1.2 2.77291 1.2H8.2271C8.94238 1.2 9.49883 1.82179 9.41975 2.53268L9.03401 6L8.61875 9.73268C8.55114 10.3403 8.0375 10.8 7.4261 10.8H3.57391C2.96251 10.8 2.44887 10.3403 2.38127 9.73268L1.96601 6L1.58027 2.53268Z" fill="#4CA8EB"/>
<path d="M7.4261 10.8C8.0375 10.8 8.55114 10.3403 8.61875 9.73268L9.03401 6H1.96601L2.38127 9.73268C2.44887 10.3403 2.96251 10.8 3.57391 10.8H7.4261Z" fill="#4CA8EB"/>
</svg>
