<svg width="92" height="86" viewBox="0 0 92 86" fill="none" xmlns="http://www.w3.org/2000/svg">
<path d="M86.6636 57.285C85.3045 56.2376 83.7464 55.4777 82.0842 55.0517C80.4221 54.6256 78.6906 54.5423 76.9952 54.8069C86.752 44.9565 91.6875 35.1634 91.6875 25.5624C91.6875 11.8104 80.6267 0.624938 67.0305 0.624938C63.423 0.602283 59.8541 1.36955 56.5746 2.87289C53.2951 4.37622 50.3844 6.57917 48.0469 9.32709C45.7093 6.57917 42.7986 4.37622 39.5191 2.87289C36.2396 1.36955 32.6708 0.602283 29.0632 0.624938C15.4671 0.624938 4.40625 11.8104 4.40625 25.5624C4.40625 31.2773 6.08953 36.8311 9.63273 42.707C6.73083 43.4422 4.08253 44.9504 1.96965 47.071L-9.78215 58.8124H-24.6875C-26.8921 58.8124 -29.0064 59.6882 -30.5653 61.2471C-32.1242 62.806 -33 64.9203 -33 67.1249V87.9062C-33 90.1108 -32.1242 92.2251 -30.5653 93.784C-29.0064 95.3429 -26.8921 96.2187 -24.6875 96.2187H29.3438C29.6835 96.2185 30.022 96.1766 30.3516 96.094L63.6016 87.7815C63.8135 87.7309 64.0204 87.6613 64.2199 87.5737L84.4141 78.9806L84.6427 78.8767C86.5835 77.9069 88.2454 76.459 89.472 74.6694C90.6986 72.8797 91.4493 70.8073 91.6536 68.6473C91.8578 66.4873 91.5088 64.3109 90.6395 62.3231C89.7701 60.3352 88.409 58.6014 86.6844 57.285H86.6636ZM81.0007 71.3903L61.2586 79.7963L28.8242 87.9062H-3.90625V64.6883L7.85074 52.9365C8.61983 52.1613 9.53535 51.5467 10.5441 51.1284C11.5528 50.7101 12.6346 50.4964 13.7266 50.4999H39.7344C41.3878 50.4999 42.9736 51.1568 44.1427 52.3259C45.3119 53.4951 45.9688 55.0809 45.9688 56.7343C45.9688 58.3878 45.3119 59.9735 44.1427 61.1427C42.9736 62.3119 41.3878 62.9687 39.7344 62.9687H25.1875C24.0852 62.9687 23.028 63.4066 22.2486 64.186C21.4691 64.9655 21.0312 66.0226 21.0312 67.1249C21.0312 68.2272 21.4691 69.2844 22.2486 70.0639C23.028 70.8433 24.0852 71.2812 25.1875 71.2812H41.8125C42.1253 71.2804 42.4372 71.2455 42.7425 71.1773L77.551 63.1713L77.7121 63.1297C78.7747 62.8348 79.9089 62.9432 80.8963 63.4341C81.8838 63.925 82.6548 64.7638 83.0611 65.789C83.4673 66.8143 83.48 67.9535 83.0968 68.9876C82.7135 70.0216 81.9614 70.8774 80.9852 71.3903H81.0007Z" fill="#FFD2B8"/>
</svg>
