<svg width="16" height="16" viewBox="0 0 16 16" fill="none" xmlns="http://www.w3.org/2000/svg">
<g clip-path="url(#clip0_264_1802)">
<path d="M4.82593 6.99813C4.49741 6.99903 4.17198 6.93475 3.86848 6.80902C3.56498 6.68328 3.28943 6.49859 3.0578 6.26562L0.651553 3.86094C0.461241 3.67062 0.443741 3.36094 0.62499 3.16125C0.670492 3.11108 0.725712 3.07068 0.7873 3.0425C0.848888 3.01431 0.915561 2.99894 0.983271 2.9973C1.05098 2.99566 1.11832 3.0078 1.1812 3.03298C1.24407 3.05815 1.30118 3.09584 1.34905 3.14375L3.49374 5.28687C3.56575 5.3588 3.66337 5.3992 3.76515 5.3992C3.86692 5.3992 3.96454 5.3588 4.03655 5.28687C4.18624 5.1375 4.17812 4.885 4.02874 4.73562L1.89343 2.60031C1.84556 2.55244 1.80792 2.49536 1.78277 2.43251C1.75763 2.36966 1.74551 2.30236 1.74714 2.23469C1.74878 2.16702 1.76414 2.10038 1.79229 2.03882C1.82045 1.97726 1.86081 1.92206 1.91093 1.87656C2.00142 1.79449 2.11939 1.74933 2.24155 1.75C2.31011 1.75003 2.37799 1.76357 2.44132 1.78984C2.50464 1.81612 2.56217 1.85461 2.61062 1.90312L4.74405 4.03625C4.81606 4.10817 4.91368 4.14857 5.01546 4.14857C5.11724 4.14857 5.21485 4.10817 5.28687 4.03625C5.43624 3.88687 5.42843 3.63437 5.27905 3.485L3.14374 1.35031C3.09588 1.30244 3.05823 1.24536 3.03309 1.18251C3.00794 1.11966 2.99582 1.05236 2.99746 0.984689C2.99909 0.917017 3.01445 0.850381 3.04261 0.788822C3.07076 0.727262 3.11112 0.672061 3.16124 0.626562C3.25173 0.544488 3.3697 0.499328 3.49187 0.5C3.63031 0.500164 3.76303 0.555232 3.86093 0.653125L6.26562 3.05781C6.49858 3.2895 6.68328 3.5651 6.80902 3.86865C6.93475 4.17221 6.99903 4.49769 6.99812 4.82625V5.08344C6.99806 5.14919 7.01098 5.21431 7.03613 5.27507C7.06128 5.33582 7.09817 5.39102 7.14468 5.4375L8.25749 6.55062C8.2691 6.56225 8.28289 6.57147 8.29806 6.57776C8.31323 6.58405 8.3295 6.58729 8.34593 6.58729C8.36235 6.58729 8.37862 6.58405 8.3938 6.57776C8.40897 6.57147 8.42276 6.56225 8.43436 6.55062L13.8494 1.13531C13.9428 1.04175 14.0695 0.989018 14.2018 0.988667C14.334 0.988315 14.461 1.04037 14.555 1.13344C15.0284 1.6025 15.2812 2.26469 15.2812 3.04812C15.2844 4.34187 14.6044 5.82937 13.5066 6.92562L10.8362 9.59594C10.4567 9.97467 9.94243 10.1874 9.40624 10.1875C9.2353 10.1876 9.06506 10.1657 8.89968 10.1225C8.85815 10.1116 8.81542 10.106 8.77249 10.1059C8.64697 10.106 8.52609 10.1534 8.43405 10.2388L8.07811 10.5675C7.98631 10.6613 7.93474 10.7872 7.93436 10.9184V11.0916C7.93528 11.4851 7.78061 11.8631 7.50405 12.1431L4.68999 15.0047L4.68718 15.0078C4.37484 15.3201 3.95124 15.4955 3.50957 15.4955C3.06789 15.4955 2.64431 15.32 2.33202 15.0077C2.01973 14.6953 1.8443 14.2717 1.84433 13.83C1.84436 13.3884 2.01984 12.9648 2.33218 12.6525L6.5503 8.43437C6.56192 8.42277 6.57114 8.40898 6.57744 8.39381C6.58373 8.37863 6.58696 8.36236 6.58696 8.34594C6.58696 8.32951 6.58373 8.31324 6.57744 8.29807C6.57114 8.2829 6.56192 8.26911 6.5503 8.2575L5.43749 7.14469C5.39105 7.09821 5.3359 7.06135 5.2752 7.0362C5.2145 7.01105 5.14944 6.99811 5.08374 6.99813H4.82593Z" fill="#5B350C"/>
<path d="M9.40624 11.1875C10.2068 11.1859 10.9743 10.8686 11.5425 10.3047L11.9756 9.87156C12.0225 9.82481 12.086 9.79855 12.1522 9.79855C12.2184 9.79855 12.2819 9.82481 12.3287 9.87156L14.985 12.5141C15.4584 12.9875 15.6275 13.6844 15.3931 14.3669C15.38 14.4053 15.3644 14.4429 15.3466 14.4794C15.0312 15.125 14.4194 15.5 13.75 15.5C13.5198 15.5006 13.2918 15.4554 13.0791 15.3673C12.8665 15.2791 12.6735 15.1496 12.5112 14.9863L8.96874 11.4269C8.95383 11.4117 8.94241 11.3934 8.93529 11.3733C8.92816 11.3532 8.9255 11.3318 8.92749 11.3106V11.3025C8.92888 11.283 8.9342 11.264 8.94313 11.2466C8.95206 11.2293 8.96442 11.2139 8.97946 11.2014C8.9945 11.1889 9.01191 11.1796 9.03063 11.1741C9.04936 11.1685 9.06902 11.1668 9.08843 11.1691C9.19397 11.1808 9.30005 11.1869 9.40624 11.1875Z" fill="#5B350C"/>
</g>
<defs>
<clipPath id="clip0_264_1802">
<rect width="16" height="16" fill="white" transform="matrix(-1 0 0 1 16 0)"/>
</clipPath>
</defs>
</svg>
