<svg width="19" height="19" viewBox="0 0 19 19" fill="none" xmlns="http://www.w3.org/2000/svg">
<path d="M6 0.5C2.69 0.5 0.14 3.19 0 6.5V18.5H9V10.96C10.1 11.95 11.5 12.5 13 12.5C16.31 12.5 19 9.81 19 6.5C19 3.19 16.31 0.5 13 0.5H6ZM6 2.5H8.54C7.55 3.6 7 5 7 6.5V9.5H6V10.5H7V16.5H2V10.5H3V9.5H2V6.5C2 4.29 3.79 2.5 6 2.5ZM13 2.5C15.21 2.5 17 4.29 17 6.5C17 8.71 15.21 10.5 13 10.5C10.79 10.5 9 8.71 9 6.5C9 4.29 10.79 2.5 13 2.5ZM13 4.75C12.03 4.75 11.25 5.53 11.25 6.5C11.25 7.47 12.03 8.25 13 8.25C13.97 8.25 14.75 7.47 14.75 6.5C14.75 5.53 13.97 4.75 13 4.75ZM4 9.5V10.5H5V9.5H4Z" fill="#5B350C"/>
</svg>
