<svg width="28" height="28" viewBox="0 0 28 28" fill="none" xmlns="http://www.w3.org/2000/svg">
<path d="M0 1.4359C0 0.642873 0.626801 0 1.4 0H11.2C11.9732 0 12.6 0.642873 12.6 1.4359V11.4872C12.6 12.2802 11.9732 12.9231 11.2 12.9231H1.4C0.626801 12.9231 0 12.2802 0 11.4872V1.4359Z" fill="white"/>
<path d="M0 16.5128C0 15.7198 0.626801 15.0769 1.4 15.0769H11.2C11.9732 15.0769 12.6 15.7198 12.6 16.5128V26.5641C12.6 27.3571 11.9732 28 11.2 28H1.4C0.626801 28 0 27.3571 0 26.5641V16.5128Z" fill="white"/>
<path d="M15.4 1.4359C15.4 0.642873 16.0268 0 16.8 0H26.6C27.3732 0 28 0.642873 28 1.4359V11.4872C28 12.2802 27.3732 12.9231 26.6 12.9231H16.8C16.0268 12.9231 15.4 12.2802 15.4 11.4872V1.4359Z" fill="white"/>
<path d="M25.2019 27.2801C25.5874 27.6755 26.2125 27.6755 26.5981 27.2801C26.9836 26.8847 26.9836 26.2435 26.5981 25.8481L25.2019 27.2801ZM16.9904 16.4135C16.4452 16.4135 16.0032 16.8669 16.0032 17.4261L16.0032 26.5393C16.0032 27.0985 16.4452 27.5519 16.9904 27.5519C17.5357 27.5519 17.9777 27.0985 17.9777 26.5393L17.9777 18.4387L25.8758 18.4387C26.4211 18.4387 26.8631 17.9853 26.8631 17.4261C26.8631 16.8669 26.4211 16.4135 25.8758 16.4135L16.9904 16.4135ZM26.5981 25.8481L17.6885 16.7101L16.2923 18.1421L25.2019 27.2801L26.5981 25.8481Z" fill="white"/>
</svg>
