<svg width="32" height="31" viewBox="0 0 32 31" fill="none" xmlns="http://www.w3.org/2000/svg">
<path d="M4.1425 27.0825L8.7145 25.557L9.538 25.9575C11.4437 26.8822 13.6217 27.375 16 27.375C23.866 27.375 29.5 21.7545 29.5 15C29.5 8.22075 23.9065 2.625 16 2.625C8.0935 2.625 2.5 8.22075 2.5 15C2.5133 17.5943 3.36752 20.1143 4.9345 22.182L5.695 23.1945L4.1425 27.0802V27.0825ZM2.55175 29.985C2.34814 30.0532 2.12926 30.0617 1.92096 30.0096C1.71267 29.9574 1.52365 29.8467 1.37625 29.6905C1.22885 29.5344 1.12922 29.3393 1.08913 29.1283C1.04904 28.9174 1.07016 28.6993 1.15 28.5L3.13675 23.5342C1.27641 21.0768 0.263459 18.0822 0.25 15C0.25 7.5435 6.2845 0.375 16 0.375C25.7155 0.375 31.75 7.5435 31.75 15C31.75 22.4565 25.6525 29.625 16 29.625C13.1988 29.625 10.6967 29.022 8.557 27.9825L2.5495 29.985H2.55175Z" fill="#FFFBF5"/>
</svg>
