<svg width="30" height="30" viewBox="0 0 30 30" fill="none" xmlns="http://www.w3.org/2000/svg">
<path d="M29.6145 15.4965L16.1145 0.496517C15.546 -0.136483 14.454 -0.136483 13.8855 0.496517L0.38549 15.4965C0.191511 15.7121 0.0641857 15.9793 0.0189281 16.2657C-0.0263295 16.5522 0.0124215 16.8456 0.13049 17.1105C0.37049 17.652 0.90749 18 1.49999 18H4.49999V28.5C4.49999 28.8978 4.65803 29.2794 4.93933 29.5607C5.22063 29.842 5.60217 30 5.99999 30H10.5C10.8978 30 11.2793 29.842 11.5606 29.5607C11.842 29.2794 12 28.8978 12 28.5V22.5H18V28.5C18 28.8978 18.158 29.2794 18.4393 29.5607C18.7206 29.842 19.1022 30 19.5 30H24C24.3978 30 24.7793 29.842 25.0607 29.5607C25.342 29.2794 25.5 28.8978 25.5 28.5V18H28.5C28.7905 18.0013 29.0751 17.9179 29.319 17.7602C29.563 17.6025 29.7558 17.3772 29.874 17.1119C29.9921 16.8465 30.0305 16.5524 29.9844 16.2656C29.9383 15.9788 29.8098 15.7116 29.6145 15.4965Z" fill="#FFFBF5"/>
</svg>
