<svg width="40" height="39" viewBox="0 0 40 39" fill="none" xmlns="http://www.w3.org/2000/svg">
<path d="M17.2 21.1C17.2 21.6305 16.9893 22.1392 16.6142 22.5142C16.2391 22.8893 15.7304 23.1 15.2 23.1C14.6696 23.1 14.1609 22.8893 13.7858 22.5142C13.4107 22.1392 13.2 21.6305 13.2 21.1C13.2 20.5696 13.4107 20.0609 13.7858 19.6858C14.1609 19.3107 14.6696 19.1 15.2 19.1C15.7304 19.1 16.2391 19.3107 16.6142 19.6858C16.9893 20.0609 17.2 20.5696 17.2 21.1ZM24.8 19.1C24.2696 19.1 23.7609 19.3107 23.3858 19.6858C23.0107 20.0609 22.8 20.5696 22.8 21.1C22.8 21.6305 23.0107 22.1392 23.3858 22.5142C23.7609 22.8893 24.2696 23.1 24.8 23.1C25.3304 23.1 25.8391 22.8893 26.2142 22.5142C26.5893 22.1392 26.8 21.6305 26.8 21.1C26.8 20.5696 26.5893 20.0609 26.2142 19.6858C25.8391 19.3107 25.3304 19.1 24.8 19.1ZM36 19.5C36 28.332 28.832 35.5 20 35.5C11.168 35.5 4 28.332 4 19.5C4 10.668 11.168 3.50003 20 3.50003C28.832 3.50003 36 10.668 36 19.5ZM32.8 19.5C32.8 18.252 32.608 17.052 32.272 15.916C31.152 16.156 30 16.3 28.8 16.3C26.4218 16.3005 24.0733 15.7709 21.9255 14.7496C19.7778 13.7283 17.8847 12.241 16.384 10.396C15.5435 12.4266 14.2946 14.2627 12.7147 15.7903C11.1348 17.3179 9.25771 18.5044 7.2 19.276C7.216 19.34 7.2 19.42 7.2 19.5C7.2 26.556 12.944 32.3 20 32.3C27.056 32.3 32.8 26.556 32.8 19.5Z" fill="#EEFFF9"/>
</svg>
