<svg width="40" height="39" viewBox="0 0 40 39" fill="none" xmlns="http://www.w3.org/2000/svg">
<g clip-path="url(#clip0_260_565)">
<path d="M35.3495 21.459C34.9571 21.1566 34.5072 20.9372 34.0273 20.8142C33.5474 20.6912 33.0475 20.6671 32.558 20.7435C35.375 17.8995 36.8 15.072 36.8 12.3C36.8 8.32951 33.6065 5.10001 29.681 5.10001C28.6394 5.09347 27.609 5.315 26.6621 5.74904C25.7153 6.18309 24.8749 6.81913 24.2 7.61251C23.5251 6.81913 22.6847 6.18309 21.7378 5.74904C20.791 5.315 19.7606 5.09347 18.719 5.10001C14.7935 5.10001 11.6 8.32951 11.6 12.3C11.6 13.95 12.086 15.5535 13.109 17.25C12.2711 17.4623 11.5065 17.8977 10.8965 18.51L7.50349 21.9H3.19999C2.56347 21.9 1.95302 22.1529 1.50293 22.603C1.05284 23.053 0.799988 23.6635 0.799988 24.3L0.799988 30.3C0.799988 30.9365 1.05284 31.547 1.50293 31.9971C1.95302 32.4472 2.56347 32.7 3.19999 32.7H18.8C18.8981 32.6999 18.9958 32.6879 19.091 32.664L28.691 30.264C28.7522 30.2494 28.8119 30.2293 28.8695 30.204L34.7 27.723L34.766 27.693C35.3263 27.413 35.8062 26.995 36.1603 26.4783C36.5145 25.9615 36.7312 25.3632 36.7902 24.7395C36.8492 24.1159 36.7484 23.4875 36.4974 22.9136C36.2464 22.3397 35.8534 21.8391 35.3555 21.459H35.3495ZM33.7145 25.5315L28.0145 27.9585L18.65 30.3H9.19999V23.5965L12.5945 20.2035C12.8165 19.9797 13.0809 19.8022 13.3721 19.6814C13.6634 19.5607 13.9757 19.499 14.291 19.5H21.8C22.2774 19.5 22.7352 19.6897 23.0728 20.0272C23.4103 20.3648 23.6 20.8226 23.6 21.3C23.6 21.7774 23.4103 22.2352 23.0728 22.5728C22.7352 22.9104 22.2774 23.1 21.8 23.1H17.6C17.2817 23.1 16.9765 23.2264 16.7515 23.4515C16.5264 23.6765 16.4 23.9817 16.4 24.3C16.4 24.6183 16.5264 24.9235 16.7515 25.1485C16.9765 25.3736 17.2817 25.5 17.6 25.5H22.4C22.4903 25.4998 22.5803 25.4897 22.6685 25.47L32.7185 23.1585L32.765 23.1465C33.0718 23.0613 33.3992 23.0926 33.6843 23.2344C33.9695 23.3761 34.1921 23.6183 34.3093 23.9143C34.4266 24.2103 34.4303 24.5392 34.3197 24.8378C34.209 25.1363 33.9919 25.3834 33.71 25.5315H33.7145Z" fill="#EEFFF9"/>
</g>
<defs>
<clipPath id="clip0_260_565">
<rect width="38.4" height="38.4" fill="white" transform="translate(0.799988 0.300034)"/>
</clipPath>
</defs>
</svg>
