<svg width="40" height="39" viewBox="0 0 40 39" fill="none" xmlns="http://www.w3.org/2000/svg">
<path d="M33.2991 20.7352L34.1263 17.644C35.0927 14.036 35.5775 12.2328 35.2143 10.6712C34.9265 9.43842 34.2795 8.31867 33.3551 7.45363C32.1855 6.35763 30.3807 5.87443 26.7727 4.90803C23.1647 3.94003 21.3599 3.45683 19.7999 3.82003C18.5671 4.10789 17.4474 4.7549 16.5823 5.67923C15.6431 6.68083 15.1535 8.14803 14.4255 10.8136L14.0351 12.2616L13.2079 15.3528C12.2399 18.9608 11.7567 20.764 12.1199 22.3256C12.4078 23.5584 13.0548 24.6782 13.9791 25.5432C15.1487 26.6392 16.9535 27.1224 20.5615 28.0904C23.8127 28.9608 25.5999 29.4392 27.0639 29.2584C27.2239 29.2382 27.3807 29.2104 27.5343 29.1752C28.7668 28.8883 29.8865 28.2424 30.7519 27.3192C31.8479 26.148 32.3311 24.3432 33.2991 20.7352Z" stroke="#EEFFF9" stroke-width="2.4"/>
<path opacity="0.5" d="M27.0639 29.2584C26.7295 30.283 26.1417 31.2064 25.3551 31.9432C24.1855 33.0392 22.3807 33.5224 18.7727 34.4888C15.1647 35.4552 13.3599 35.94 11.7999 35.5752C10.5673 35.2878 9.44759 34.6414 8.58234 33.7176C7.48634 32.548 7.00154 30.7432 6.03514 27.1352L5.20794 24.044C4.23994 20.436 3.75674 18.6312 4.11994 17.0712C4.4078 15.8384 5.05481 14.7187 5.97914 13.8536C7.14874 12.7576 8.95354 12.2744 12.5615 11.3064C13.2421 11.123 13.8634 10.9582 14.4255 10.812" stroke="#EEFFF9" stroke-width="2.4"/>
<path d="M19.6432 16.5L27.3712 18.5704" stroke="#EEFFF9" stroke-width="2.4" stroke-linecap="round"/>
<path opacity="0.5" d="M18.4 21.1368L23.0368 22.3784" stroke="#EEFFF9" stroke-width="2.4" stroke-linecap="round"/>
</svg>
