<svg width="40" height="40" viewBox="0 0 40 40" fill="none" xmlns="http://www.w3.org/2000/svg">
<path d="M12.3822 17.4955C11.5938 17.4977 10.8128 17.3434 10.0844 17.0416C9.35595 16.7399 8.69465 16.2966 8.13874 15.7375L2.36374 9.96626C1.90699 9.50951 1.86499 8.76626 2.29999 8.28701C2.40919 8.1666 2.54172 8.06964 2.68953 8.002C2.83734 7.93436 2.99736 7.89746 3.15986 7.89353C3.32236 7.88961 3.48397 7.91874 3.63488 7.97915C3.78579 8.03957 3.92284 8.13002 4.03774 8.24501L9.18498 13.3885C9.35781 13.5611 9.59209 13.6581 9.83636 13.6581C10.0806 13.6581 10.3149 13.5611 10.4877 13.3885C10.847 13.03 10.8275 12.424 10.469 12.0655L5.34424 6.94076C5.22937 6.82588 5.13902 6.68887 5.07867 6.53803C5.01832 6.3872 4.98923 6.22568 4.99316 6.06326C4.99708 5.90085 5.03395 5.74093 5.10152 5.59318C5.16908 5.44544 5.26595 5.31296 5.38624 5.20376C5.60341 5.00678 5.88655 4.8984 6.17974 4.90001C6.34428 4.90008 6.5072 4.93258 6.65918 4.99563C6.81116 5.05869 6.94922 5.15108 7.06549 5.26751L12.1857 10.387C12.3586 10.5596 12.5928 10.6566 12.8371 10.6566C13.0814 10.6566 13.3157 10.5596 13.4885 10.387C13.847 10.0285 13.8282 9.42251 13.4697 9.06401L8.34499 3.94076C8.23012 3.82588 8.13977 3.68887 8.07942 3.53803C8.01907 3.3872 7.98998 3.22568 7.9939 3.06326C7.99783 2.90085 8.0347 2.74093 8.10227 2.59318C8.16983 2.44544 8.2667 2.31296 8.38699 2.20376C8.60416 2.00678 8.88729 1.8984 9.18048 1.90001C9.51275 1.9004 9.83129 2.03257 10.0662 2.26751L15.8375 8.03876C16.3966 8.59481 16.8399 9.25625 17.1417 9.98478C17.4434 10.7133 17.5977 11.4945 17.5955 12.283V12.9003C17.5954 13.0581 17.6264 13.2144 17.6867 13.3602C17.7471 13.506 17.8356 13.6385 17.9472 13.75L20.618 16.4215C20.6458 16.4494 20.6789 16.4715 20.7154 16.4866C20.7518 16.5017 20.7908 16.5095 20.8302 16.5095C20.8697 16.5095 20.9087 16.5017 20.9451 16.4866C20.9815 16.4715 21.0146 16.4494 21.0425 16.4215L34.0385 3.42476C34.2628 3.20021 34.5669 3.07366 34.8843 3.07281C35.2017 3.07197 35.5065 3.1969 35.732 3.42026C36.8682 4.54601 37.475 6.13526 37.475 8.01551C37.4825 11.1205 35.8505 14.6905 33.2157 17.3215L26.807 23.7303C25.8961 24.6392 24.6618 25.1498 23.375 25.15C22.9647 25.1502 22.5562 25.0977 22.1592 24.994C22.0596 24.9679 21.957 24.9545 21.854 24.9543C21.5527 24.9543 21.2626 25.0682 21.0417 25.273L20.1875 26.062C19.9672 26.2871 19.8434 26.5893 19.8425 26.9043V27.3198C19.8447 28.2643 19.4735 29.1715 18.8097 29.8435L12.056 36.7113L12.0492 36.7188C11.2996 37.4683 10.283 37.8893 9.22297 37.8892C8.16294 37.8891 7.14636 37.468 6.39686 36.7184C5.64736 35.9688 5.22633 34.9521 5.22641 33.8921C5.22647 32.8321 5.64764 31.8155 6.39724 31.066L16.5207 20.9425C16.5486 20.9146 16.5708 20.8816 16.5859 20.8451C16.601 20.8087 16.6087 20.7697 16.6087 20.7303C16.6087 20.6908 16.601 20.6518 16.5859 20.6154C16.5708 20.579 16.5486 20.5459 16.5207 20.518L13.85 17.8473C13.7385 17.7357 13.6062 17.6472 13.4605 17.5869C13.3148 17.5265 13.1587 17.4955 13.001 17.4955H12.3822Z" fill="#EEFFF9"/>
<path d="M23.375 27.55C25.2962 27.5461 27.1385 26.7848 28.502 25.4313L29.5415 24.3918C29.654 24.2796 29.8064 24.2165 29.9653 24.2165C30.1241 24.2165 30.2765 24.2796 30.389 24.3918L36.764 30.7338C37.9003 31.87 38.306 33.5425 37.7435 35.1805C37.712 35.2728 37.6746 35.3629 37.6318 35.4505C36.875 37 35.4065 37.9 33.8 37.9C33.2475 37.9014 32.7003 37.7931 32.1899 37.5814C31.6796 37.3698 31.2164 37.059 30.827 36.667L22.325 28.1245C22.2892 28.088 22.2618 28.0441 22.2447 27.9959C22.2276 27.9477 22.2212 27.8964 22.226 27.8455V27.826C22.2293 27.7792 22.2421 27.7336 22.2635 27.6919C22.285 27.6502 22.3146 27.6133 22.3507 27.5834C22.3868 27.5535 22.4286 27.5312 22.4735 27.5178C22.5185 27.5045 22.5657 27.5004 22.6122 27.5058C22.8655 27.5339 23.1201 27.5486 23.375 27.55Z" fill="#EEFFF9"/>
</svg>
