<svg width="32" height="32" viewBox="0 0 32 32" fill="none" xmlns="http://www.w3.org/2000/svg">
<path d="M27.8815 12.46L29.272 11.0695C30.3781 9.96335 30.9996 8.46309 30.9996 6.89875C30.9996 5.33442 30.3781 3.83415 29.272 2.728C28.1658 1.62185 26.6656 1.00042 25.1012 1.00042C23.5369 1.00042 22.0366 1.62185 20.9305 2.728L19.54 4.1185L6.757 16.8985C5.8915 17.7655 5.458 18.199 5.086 18.676C4.64709 19.2392 4.27039 19.8483 3.9625 20.4925C3.703 21.0385 3.5095 21.6205 3.1225 22.7815L1.4815 27.703M27.8815 12.46C27.8815 12.46 24.928 12.286 22.321 9.679C19.714 7.0735 19.5415 4.1185 19.5415 4.1185M27.8815 12.46L15.1 25.24C14.2345 26.1055 13.801 26.539 13.324 26.911C12.7608 27.3499 12.1517 27.7266 11.5075 28.0345C10.9615 28.294 10.381 28.4875 9.2185 28.8745L4.297 30.5155M4.297 30.5155L3.094 30.9175C2.81358 31.0115 2.51249 31.0255 2.22458 30.9578C1.93667 30.8901 1.67334 30.7434 1.46421 30.5343C1.25507 30.3252 1.10841 30.0618 1.04071 29.7739C0.973018 29.486 0.986969 29.1849 1.081 28.9045L1.483 27.7015L4.297 30.5155Z" stroke="#FFFBF5" stroke-width="2"/>
</svg>
