<?xml version="1.0" encoding="UTF-8"?>
<svg id="Camada_1" data-name="Camada 1" xmlns="http://www.w3.org/2000/svg" viewBox="0 0 28.8 28.8">
  <defs>
    <style>
      .cls-1 {
        fill: #C22133;
      }
    </style>
  </defs>
  <path class="cls-1" d="m11.01,10.4c.81-.98,2.03-1.6,3.39-1.6s2.59.62,3.39,1.6c.53.64.87,1.43.97,2.25.1.83-.03,1.67-.39,2.42-.36.75-.92,1.39-1.62,1.84-.7.45-1.52.68-2.36.68s-1.65-.24-2.36-.68c-.7-.45-1.27-1.08-1.62-1.84-.36-.75-.49-1.59-.39-2.42.1-.83.44-1.61.97-2.25h0Zm9.39,2.8c0-1.01-.25-1.96-.69-2.8h6.69c.64,0,1.25.25,1.7.7.45.45.7,1.06.7,1.7v.8c0,2.54-1.93,5.14-5.3,6.05-.35-.62-.85-1.14-1.47-1.5-.61-.36-1.31-.55-2.03-.55h-1.52c.61-.56,1.09-1.24,1.42-2,.33-.76.5-1.57.5-2.4Zm-.4,6c.32,0,.63.06.92.18.29.12.56.3.78.52.22.22.4.49.52.78.12.29.18.6.18.92v.8c0,3.15-2.98,6.4-8,6.4s-8-3.25-8-6.4v-.8c0-.32.06-.63.18-.92.12-.29.3-.56.52-.78.22-.22.49-.4.78-.52.29-.12.6-.18.92-.18h11.2ZM0,13.6c0,2.54,1.93,5.14,5.3,6.05.35-.62.85-1.14,1.47-1.5.61-.36,1.31-.55,2.03-.55h1.52c-.61-.56-1.09-1.24-1.42-2-.33-.76-.5-1.57-.5-2.4,0-1.01.25-1.96.69-2.8H2.4c-.64,0-1.25.25-1.7.7-.45.45-.7,1.06-.7,1.7v.8ZM12.4,4.4c0-1.17-.46-2.29-1.29-3.11-.83-.83-1.94-1.29-3.11-1.29s-2.29.46-3.11,1.29c-.83.83-1.29,1.94-1.29,3.11s.46,2.29,1.29,3.11c.83.83,1.94,1.29,3.11,1.29s2.29-.46,3.11-1.29c.83-.83,1.29-1.94,1.29-3.11Zm12.8,0c0-1.17-.46-2.29-1.29-3.11-.83-.83-1.94-1.29-3.11-1.29s-2.29.46-3.11,1.29c-.83.83-1.29,1.94-1.29,3.11s.46,2.29,1.29,3.11c.83.83,1.94,1.29,3.11,1.29s2.29-.46,3.11-1.29c.83-.83,1.29-1.94,1.29-3.11Z"/>
</svg>