<?xml version="1.0" encoding="UTF-8"?>
<svg id="Camada_1" data-name="Camada 1" xmlns="http://www.w3.org/2000/svg" viewBox="0 0 28 28">
  <defs>
    <style>
      .cls-1 {
        fill: #C22133;
      }
    </style>
  </defs>
  <path class="cls-1" d="m0,1.44C0,.64.63,0,1.4,0h9.8c.77,0,1.4.64,1.4,1.44v10.05c0,.79-.63,1.44-1.4,1.44H1.4c-.77,0-1.4-.64-1.4-1.44V1.44Z"/>
  <path class="cls-1" d="m0,16.51c0-.79.63-1.44,1.4-1.44h9.8c.77,0,1.4.64,1.4,1.44v10.05c0,.79-.63,1.44-1.4,1.44H1.4c-.77,0-1.4-.64-1.4-1.44v-10.05Z"/>
  <path class="cls-1" d="m15.4,1.44c0-.79.63-1.44,1.4-1.44h9.8c.77,0,1.4.64,1.4,1.44v10.05c0,.79-.63,1.44-1.4,1.44h-9.8c-.77,0-1.4-.64-1.4-1.44V1.44Z"/>
  <path class="cls-1" d="m25.2,27.28c.39.4,1.01.4,1.4,0,.39-.4.39-1.04,0-1.43l-1.4,1.43Zm-8.21-10.87c-.55,0-.99.45-.99,1.01v9.11c0,.56.44,1.01.99,1.01s.99-.45.99-1.01v-8.1h7.9c.55,0,.99-.45.99-1.01s-.44-1.01-.99-1.01h-8.89Zm9.61,9.43l-8.91-9.14-1.4,1.43,8.91,9.14,1.4-1.43Z"/>
</svg>