<?xml version="1.0" encoding="UTF-8"?>
<svg id="Camada_1" data-name="Camada 1" xmlns="http://www.w3.org/2000/svg" viewBox="0 0 28 28">
  <defs>
    <style>
      .cls-1 {
        fill: #C22133;
      }
    </style>
  </defs>
  <path class="cls-1" d="m15.97.4c-1.27-.53-2.68-.53-3.95,0l-3.07,1.28,13.43,5.37,4.72-1.88c-.19-.17-.41-.3-.64-.4L15.97.4Zm12.03,6.73l-12.95,5.14v15.72c.31-.06.62-.16.92-.29l10.5-4.38c.45-.19.84-.51,1.11-.93.27-.42.42-.91.42-1.41V7.13h0Zm-15.05,20.87v-15.72L0,7.13v13.87c0,.5.15.99.42,1.41.27.42.66.74,1.11.93l10.5,4.38c.3.13.61.22.92.29h0ZM.89,5.17l13.11,5.21,5.48-2.18L6.12,2.86l-4.59,1.91c-.24.1-.45.23-.64.4Z"/>
</svg>