<?xml version="1.0" encoding="UTF-8"?>
<svg id="Camada_1" data-name="Camada 1" xmlns="http://www.w3.org/2000/svg" viewBox="0 0 26 28">
  <defs>
    <style>
      .cls-1 {
        fill: #C22133;
      }
    </style>
  </defs>
  <path class="cls-1" d="m22.5,0c.93,0,1.82.37,2.47,1.03.66.66,1.03,1.55,1.03,2.47v21c0,1.93-1.57,3.5-3.5,3.5H7.5c-.93,0-1.82-.37-2.47-1.03-.66-.66-1.03-1.55-1.03-2.47V3.5c0-.93.37-1.82,1.03-2.47.66-.66,1.55-1.03,2.47-1.03h15Zm-.5,5.5c0-.4-.16-.78-.44-1.06s-.66-.44-1.06-.44h-11c-.4,0-.78.16-1.06.44-.28.28-.44.66-.44,1.06v1c0,.4.16.78.44,1.06.28.28.66.44,1.06.44h11c.4,0,.78-.16,1.06-.44s.44-.66.44-1.06v-1Zm-20,.5H.75c-.41,0-.75.34-.75.75v2.5c0,.2.08.39.22.53.14.14.33.22.53.22h1.25v-4Zm-1.25,6h1.25v4H.75c-.2,0-.39-.08-.53-.22-.14-.14-.22-.33-.22-.53v-2.5c0-.2.08-.39.22-.53.14-.14.33-.22.53-.22Zm1.25,6H.75c-.41,0-.75.34-.75.75v2.5c0,.2.08.39.22.53.14.14.33.22.53.22h1.25v-4Z"/>
</svg>