<svg width="16" height="16" viewBox="0 0 16 16" fill="none" xmlns="http://www.w3.org/2000/svg">
<path d="M6.6 8.8C6.6 9.06522 6.49464 9.31957 6.30711 9.50711C6.11957 9.69464 5.86522 9.8 5.6 9.8C5.33478 9.8 5.08043 9.69464 4.89289 9.50711C4.70536 9.31957 4.6 9.06522 4.6 8.8C4.6 8.53478 4.70536 8.28043 4.89289 8.09289C5.08043 7.90536 5.33478 7.8 5.6 7.8C5.86522 7.8 6.11957 7.90536 6.30711 8.09289C6.49464 8.28043 6.6 8.53478 6.6 8.8ZM10.4 7.8C10.1348 7.8 9.88043 7.90536 9.69289 8.09289C9.50536 8.28043 9.4 8.53478 9.4 8.8C9.4 9.06522 9.50536 9.31957 9.69289 9.50711C9.88043 9.69464 10.1348 9.8 10.4 9.8C10.6652 9.8 10.9196 9.69464 11.1071 9.50711C11.2946 9.31957 11.4 9.06522 11.4 8.8C11.4 8.53478 11.2946 8.28043 11.1071 8.09289C10.9196 7.90536 10.6652 7.8 10.4 7.8ZM16 8C16 12.416 12.416 16 8 16C3.584 16 0 12.416 0 8C0 3.584 3.584 0 8 0C12.416 0 16 3.584 16 8ZM14.4 8C14.4 7.376 14.304 6.776 14.136 6.208C13.576 6.328 13 6.4 12.4 6.4C11.2109 6.40026 10.0367 6.13543 8.96277 5.62478C7.88888 5.11413 6.94233 4.3705 6.192 3.448C5.77177 4.46329 5.14729 5.38134 4.35735 6.14514C3.5674 6.90894 2.62885 7.50217 1.6 7.888C1.608 7.92 1.6 7.96 1.6 8C1.6 11.528 4.472 14.4 8 14.4C11.528 14.4 14.4 11.528 14.4 8Z" fill="#CC875A"/>
</svg>
