<svg width="17" height="14" viewBox="0 0 17 14" fill="none" xmlns="http://www.w3.org/2000/svg">
<path d="M16.1951 7.91835C16.0111 7.77659 15.8003 7.67375 15.5753 7.61609C15.3504 7.55843 15.116 7.54716 14.8866 7.58296C16.207 6.24983 16.875 4.92444 16.875 3.62507C16.875 1.76389 15.378 0.250066 13.538 0.250066C13.0497 0.247 12.5667 0.350841 12.1229 0.5543C11.679 0.757758 11.2851 1.0559 10.9688 1.4278C10.6524 1.0559 10.2585 0.757758 9.81462 0.5543C9.37077 0.350841 8.88778 0.247 8.39953 0.250066C6.55945 0.250066 5.0625 1.76389 5.0625 3.62507C5.0625 4.3985 5.29031 5.15014 5.76984 5.94538C5.3771 6.04488 5.01869 6.24899 4.73273 6.536L3.14227 8.12507H1.125C0.826631 8.12507 0.540483 8.24359 0.329505 8.45457C0.118526 8.66555 0 8.9517 0 9.25007L0 12.0626C0 12.3609 0.118526 12.6471 0.329505 12.8581C0.540483 13.069 0.826631 13.1876 1.125 13.1876H8.4375C8.48349 13.1875 8.5293 13.1819 8.57391 13.1707L13.0739 12.0457C13.1026 12.0388 13.1306 12.0294 13.1576 12.0176L15.8906 10.8546L15.9216 10.8405C16.1842 10.7093 16.4092 10.5133 16.5752 10.2711C16.7412 10.0289 16.8428 9.74843 16.8704 9.4561C16.8981 9.16377 16.8508 8.86922 16.7332 8.60019C16.6155 8.33116 16.4313 8.09651 16.1979 7.91835H16.1951ZM15.4287 9.82733L12.7568 10.965L8.36719 12.0626H3.9375V8.9203L5.52867 7.32983C5.63276 7.22491 5.75666 7.14173 5.89318 7.08512C6.0297 7.0285 6.17612 6.99959 6.32391 7.00007H9.84375C10.0675 7.00007 10.2821 7.08896 10.4404 7.2472C10.5986 7.40543 10.6875 7.62004 10.6875 7.84382C10.6875 8.06759 10.5986 8.2822 10.4404 8.44044C10.2821 8.59867 10.0675 8.68757 9.84375 8.68757H7.875C7.72582 8.68757 7.58274 8.74683 7.47725 8.85232C7.37176 8.95781 7.3125 9.10088 7.3125 9.25007C7.3125 9.39925 7.37176 9.54232 7.47725 9.64781C7.58274 9.7533 7.72582 9.81257 7.875 9.81257H10.125C10.1673 9.81246 10.2095 9.80774 10.2509 9.7985L14.9618 8.71499L14.9836 8.70936C15.1274 8.66944 15.2809 8.68411 15.4145 8.75055C15.5482 8.817 15.6525 8.93052 15.7075 9.06927C15.7625 9.20802 15.7642 9.36221 15.7123 9.50215C15.6605 9.6421 15.5587 9.75792 15.4266 9.82733H15.4287Z" fill="#CC875A"/>
</svg>
