<svg width="24" height="24" viewBox="0 0 24 24" fill="none" xmlns="http://www.w3.org/2000/svg">
<path d="M20.312 12.647L20.829 10.715C21.433 8.45997 21.736 7.33297 21.509 6.35697C21.3291 5.58646 20.9247 4.88662 20.347 4.34597C19.616 3.66097 18.488 3.35897 16.233 2.75497C13.978 2.14997 12.85 1.84797 11.875 2.07497C11.1045 2.25488 10.4046 2.65927 9.86397 3.23697C9.27697 3.86297 8.97097 4.77997 8.51597 6.44597L8.27197 7.35097L7.75497 9.28297C7.14997 11.538 6.84797 12.665 7.07497 13.641C7.25488 14.4115 7.65927 15.1113 8.23697 15.652C8.96797 16.337 10.096 16.639 12.351 17.244C14.383 17.788 15.5 18.087 16.415 17.974C16.515 17.9613 16.613 17.944 16.709 17.922C17.4792 17.7426 18.1791 17.3389 18.72 16.762C19.405 16.03 19.707 14.902 20.312 12.647Z" stroke="#CC875A" stroke-width="2"/>
<path opacity="0.5" d="M16.415 17.9741C16.2059 18.6144 15.8386 19.1916 15.347 19.6521C14.616 20.3371 13.488 20.6391 11.233 21.2431C8.97797 21.8471 7.84997 22.1501 6.87497 21.9221C6.10458 21.7424 5.40475 21.3384 4.86397 20.7611C4.17897 20.0301 3.87597 18.9021 3.27197 16.6471L2.75497 14.7151C2.14997 12.4601 1.84797 11.3321 2.07497 10.3571C2.25488 9.58656 2.65927 8.88672 3.23697 8.34607C3.96797 7.66107 5.09597 7.35907 7.35097 6.75407C7.7763 6.6394 8.16464 6.5364 8.51597 6.44507" stroke="#CC875A" stroke-width="2"/>
<path d="M11.777 10L16.607 11.294" stroke="#CC875A" stroke-width="2" stroke-linecap="round"/>
<path opacity="0.5" d="M11 12.8979L13.898 13.6739" stroke="#CC875A" stroke-width="2" stroke-linecap="round"/>
</svg>
