<?xml version="1.0" encoding="UTF-8"?>
<svg id="Camada_1" data-name="Camada 1" xmlns="http://www.w3.org/2000/svg" viewBox="0 0 28 22">
  <defs>
    <style>
      .cls-1 {
        fill: #C22133;
      }
    </style>
  </defs>
  <path class="cls-1" d="m2.69,22c-.74,0-1.37-.27-1.9-.81-.53-.54-.79-1.19-.79-1.94V2.75c0-.76.26-1.4.79-1.94.53-.54,1.16-.81,1.9-.81h6.96c.36,0,.7.07,1.03.21.32.14.61.33.86.58l1.92,1.96h10.76c.74,0,1.37.27,1.9.81.53.54.79,1.19.79,1.94H5.38c-.74,0-1.37.27-1.9.81-.53.54-.79,1.19-.79,1.94v11l2.66-9.04c.18-.6.51-1.07.99-1.43.48-.35,1.01-.53,1.6-.53h17.35c.92,0,1.64.37,2.17,1.12.53.75.67,1.55.42,2.42l-2.42,8.25c-.18.6-.51,1.07-.99,1.43-.48.35-1.02.53-1.6.53H2.69Z"/>
</svg>