<svg width="58" height="40" viewBox="0 0 58 40" fill="none" xmlns="http://www.w3.org/2000/svg">
<path d="M25 28L21.2223 24.2156M23.3158 19.1579C23.3158 21.0563 22.5617 22.8769 21.2193 24.2193C19.8769 25.5617 18.0563 26.3158 16.1579 26.3158C14.2595 26.3158 12.4389 25.5617 11.0965 24.2193C9.75413 22.8769 9 21.0563 9 19.1579C9 17.2595 9.75413 15.4389 11.0965 14.0965C12.4389 12.7541 14.2595 12 16.1579 12C18.0563 12 19.8769 12.7541 21.2193 14.0965C22.5617 15.4389 23.3158 17.2595 23.3158 19.1579V19.1579Z" stroke="#ABABAB" stroke-width="1.5" stroke-linecap="round"/>
<rect x="1" y="4.5" width="32" height="31" rx="15.5" stroke="#F2F3F4"/>
<path d="M50.5 23.4615C50.5 23.737 50.3946 24.0011 50.2071 24.1958C50.0196 24.3906 49.7652 24.5 49.5 24.5C49.2348 24.5 48.9804 24.3906 48.7929 24.1958C48.6054 24.0011 48.5 23.737 48.5 23.4615C48.5 23.1861 48.6054 22.922 48.7929 22.7272C48.9804 22.5325 49.2348 22.4231 49.5 22.4231C49.7652 22.4231 50.0196 22.5325 50.2071 22.7272C50.3946 22.922 50.5 23.1861 50.5 23.4615ZM50.5 20C50.5 20.2754 50.3946 20.5396 50.2071 20.7343C50.0196 20.9291 49.7652 21.0385 49.5 21.0385C49.2348 21.0385 48.9804 20.9291 48.7929 20.7343C48.6054 20.5396 48.5 20.2754 48.5 20C48.5 19.7246 48.6054 19.4604 48.7929 19.2657C48.9804 19.0709 49.2348 18.9615 49.5 18.9615C49.7652 18.9615 50.0196 19.0709 50.2071 19.2657C50.3946 19.4604 50.5 19.7246 50.5 20ZM50.5 16.5385C50.5 16.8139 50.3946 17.078 50.2071 17.2728C50.0196 17.4675 49.7652 17.5769 49.5 17.5769C49.2348 17.5769 48.9804 17.4675 48.7929 17.2728C48.6054 17.078 48.5 16.8139 48.5 16.5385C48.5 16.263 48.6054 15.9989 48.7929 15.8042C48.9804 15.6094 49.2348 15.5 49.5 15.5C49.7652 15.5 50.0196 15.6094 50.2071 15.8042C50.3946 15.9989 50.5 16.263 50.5 16.5385Z" fill="black"/>
</svg>
