<svg width="593" height="32" viewBox="0 0 593 32" fill="none" xmlns="http://www.w3.org/2000/svg">
<rect x="0.5" y="11" width="592" height="1" rx="0.5" fill="#ABABAB"/>
<g filter="url(#filter0_d_1_219)">
<g clip-path="url(#clip0_1_219)">
<rect x="309" width="24" height="24" rx="12" transform="rotate(90 309 0)" fill="#ABABAB"/>
<path d="M297 24C303.624 24 309 18.624 309 12C309 5.376 303.624 -2.34992e-07 297 -5.24537e-07C290.376 -8.14081e-07 285 5.376 285 12C285 18.624 290.376 24 297 24ZM293.652 12L295.8 12L295.8 8.4C295.8 7.74 296.34 7.2 297 7.2C297.66 7.2 298.2 7.74 298.2 8.4L298.2 12L300.348 12C300.888 12 301.152 12.648 300.768 13.02L297.42 16.368C297.18 16.608 296.808 16.608 296.568 16.368L293.22 13.02C293.137 12.9354 293.081 12.8282 293.059 12.7118C293.037 12.5954 293.05 12.4751 293.096 12.366C293.142 12.2569 293.22 12.164 293.319 12.0988C293.418 12.0337 293.534 11.9993 293.652 12Z" fill="white"/>
</g>
<rect x="308.5" y="0.5" width="23" height="23" rx="11.5" transform="rotate(90 308.5 0.5)" stroke="#ABABAB"/>
</g>
<defs>
<filter id="filter0_d_1_219" x="281" y="0" width="32" height="32" filterUnits="userSpaceOnUse" color-interpolation-filters="sRGB">
<feFlood flood-opacity="0" result="BackgroundImageFix"/>
<feColorMatrix in="SourceAlpha" type="matrix" values="0 0 0 0 0 0 0 0 0 0 0 0 0 0 0 0 0 0 127 0" result="hardAlpha"/>
<feOffset dy="4"/>
<feGaussianBlur stdDeviation="2"/>
<feComposite in2="hardAlpha" operator="out"/>
<feColorMatrix type="matrix" values="0 0 0 0 0 0 0 0 0 0 0 0 0 0 0 0 0 0 0.25 0"/>
<feBlend mode="normal" in2="BackgroundImageFix" result="effect1_dropShadow_1_219"/>
<feBlend mode="normal" in="SourceGraphic" in2="effect1_dropShadow_1_219" result="shape"/>
</filter>
<clipPath id="clip0_1_219">
<rect x="309" width="24" height="24" rx="12" transform="rotate(90 309 0)" fill="white"/>
</clipPath>
</defs>
</svg>
