<?xml version="1.0" encoding="UTF-8"?>
<svg id="Camada_1" data-name="Camada 1" xmlns="http://www.w3.org/2000/svg" viewBox="0 0 32 21">
  <defs>
    <style>
      .cls-1 {
        fill: #C22133;
      }
    </style>
  </defs>
  <path class="cls-1" d="m31.06,1.05C29.12.29,27.18,0,25.24,0c-6.16,0-12.32,2.92-18.47,2.92-1.54,0-3.09-.18-4.63-.64-.17-.05-.35-.08-.52-.08-.86,0-1.61.62-1.61,1.49v14.87c0,.59.36,1.15.94,1.38,1.94.76,3.88,1.05,5.82,1.05,6.16,0,12.32-2.92,18.48-2.92,1.54,0,3.09.18,4.63.64.17.05.35.08.52.08.86,0,1.61-.62,1.61-1.49V2.43c0-.59-.36-1.15-.94-1.38ZM2.4,4.7c1.01.24,2.06.35,3.14.42-.29,1.38-1.59,2.42-3.14,2.42v-2.83Zm0,13.36v-2.24c1.72,0,3.11,1.28,3.19,2.88-1.13-.08-2.18-.3-3.19-.64Zm13.6-3.06c-2.21,0-4-2.02-4-4.5s1.79-4.5,4-4.5,4,2.01,4,4.5-1.79,4.5-4,4.5Zm13.6,1.3c-.88-.21-1.79-.32-2.72-.4.29-1.22,1.38-2.15,2.72-2.31v2.71Zm0-11.07c-1.54-.18-2.74-1.39-2.79-2.89.98.1,1.9.29,2.79.59v2.29Z"/>
</svg>