<?xml version="1.0" encoding="UTF-8"?>
<svg id="Camada_1" data-name="Camada 1" xmlns="http://www.w3.org/2000/svg" viewBox="0 0 24 31">
  <defs>
    <style>
      .cls-1 {
        fill: #C22133;
      }
    </style>
  </defs>
  <path class="cls-1" d="m4,0C1.79,0,0,1.74,0,3.88v23.25c0,2.14,1.79,3.88,4,3.88h16c2.21,0,4-1.74,4-3.88V9.69h-8c-1.11,0-2-.87-2-1.94V0H4Zm12,0v7.75h8L16,0ZM4,4.84c0-.53.45-.97,1-.97h4c.55,0,1,.44,1,.97s-.45.97-1,.97h-4c-.55,0-1-.44-1-.97Zm0,3.88c0-.53.45-.97,1-.97h4c.55,0,1,.44,1,.97s-.45.97-1,.97h-4c-.55,0-1-.44-1-.97Zm8,4.36c.55,0,1,.44,1,.97v1.05c.53.07,1.04.19,1.51.31.53.14.85.67.71,1.19-.14.52-.69.82-1.22.68-.69-.18-1.38-.31-2.01-.32-.52,0-1.09.11-1.47.33-.36.21-.51.44-.51.77,0,.22.08.39.46.61.43.25,1.04.43,1.82.66h.03c.71.21,1.58.47,2.27.89.76.46,1.4,1.19,1.42,2.31.02,1.17-.6,2.02-1.43,2.52-.48.29-1.03.46-1.57.55v1.04c0,.53-.45.97-1,.97s-1-.44-1-.97v-1.08c-.7-.13-1.36-.35-1.93-.54-.13-.04-.26-.08-.39-.13-.52-.17-.81-.72-.63-1.22.18-.5.74-.78,1.26-.61.16.05.3.1.44.15.85.28,1.54.51,2.27.53.57.02,1.12-.1,1.48-.32.32-.19.49-.44.49-.85,0-.28-.11-.47-.48-.7-.43-.26-1.03-.45-1.81-.68l-.1-.03c-.69-.2-1.52-.44-2.18-.83-.75-.44-1.41-1.14-1.42-2.26,0-1.17.67-1.99,1.49-2.45.47-.27.99-.44,1.51-.53v-1.04c0-.53.45-.97,1-.97Z"/>
</svg>